<svg xmlns="http://www.w3.org/2000/svg" xmlns:xlink="http://www.w3.org/1999/xlink" width="1280" zoomAndPan="magnify" viewBox="0 0 960 959.999988" height="1280" preserveAspectRatio="xMidYMid meet" version="1.0"><defs><clipPath id="d3f25309d9"><path d="M 108.71875 127.4375 L 366 127.4375 L 366 854.1875 L 108.71875 854.1875 Z M 108.71875 127.4375 " clip-rule="nonzero"/></clipPath><clipPath id="738050f1f0"><path d="M 108.71875 256 L 682 256 L 682 854.1875 L 108.71875 854.1875 Z M 108.71875 256 " clip-rule="nonzero"/></clipPath><clipPath id="4fd80ed961"><path d="M 108.71875 127.4375 L 835.46875 127.4375 L 835.46875 385 L 108.71875 385 Z M 108.71875 127.4375 " clip-rule="nonzero"/></clipPath></defs><g clip-path="url(#d3f25309d9)"><path fill="#40514e" d="M 237.140625 127.4375 C 239.242188 127.4375 241.34375 127.488281 243.441406 127.59375 C 245.542969 127.695312 247.636719 127.851562 249.730469 128.058594 C 251.820312 128.261719 253.90625 128.519531 255.984375 128.828125 C 258.0625 129.136719 260.132812 129.496094 262.195312 129.90625 C 264.257812 130.316406 266.304688 130.777344 268.34375 131.289062 C 270.382812 131.796875 272.410156 132.359375 274.417969 132.96875 C 276.429688 133.578125 278.425781 134.238281 280.40625 134.945312 C 282.382812 135.652344 284.34375 136.410156 286.285156 137.214844 C 288.226562 138.019531 290.148438 138.871094 292.046875 139.769531 C 293.949219 140.667969 295.824219 141.613281 297.679688 142.601562 C 299.53125 143.59375 301.359375 144.628906 303.164062 145.710938 C 304.964844 146.789062 306.738281 147.914062 308.488281 149.082031 C 310.234375 150.25 311.953125 151.457031 313.640625 152.710938 C 315.328125 153.960938 316.984375 155.253906 318.609375 156.589844 C 320.234375 157.921875 321.824219 159.292969 323.382812 160.707031 C 324.941406 162.117188 326.460938 163.566406 327.949219 165.050781 C 329.433594 166.539062 330.882812 168.058594 332.292969 169.617188 C 333.707031 171.175781 335.078125 172.765625 336.410156 174.390625 C 337.746094 176.015625 339.035156 177.671875 340.289062 179.359375 C 341.539062 181.046875 342.75 182.765625 343.917969 184.511719 C 345.085938 186.257812 346.210938 188.035156 347.289062 189.835938 C 348.371094 191.640625 349.40625 193.46875 350.398438 195.320312 C 351.386719 197.175781 352.332031 199.050781 353.230469 200.953125 C 354.128906 202.851562 354.980469 204.773438 355.785156 206.714844 C 356.589844 208.65625 357.347656 210.617188 358.054688 212.59375 C 358.761719 214.574219 359.421875 216.570312 360.03125 218.578125 C 360.640625 220.589844 361.203125 222.617188 361.710938 224.65625 C 362.222656 226.691406 362.683594 228.742188 363.09375 230.804688 C 363.503906 232.867188 363.863281 234.9375 364.171875 237.015625 C 364.480469 239.09375 364.738281 241.179688 364.941406 243.269531 C 365.148438 245.363281 365.304688 247.457031 365.40625 249.558594 C 365.507812 251.65625 365.5625 253.757812 365.5625 255.859375 L 365.5625 725.6875 C 365.5625 727.792969 365.507812 729.890625 365.40625 731.992188 C 365.304688 734.089844 365.148438 736.183594 364.941406 738.277344 C 364.738281 740.367188 364.480469 742.453125 364.171875 744.53125 C 363.863281 746.609375 363.503906 748.679688 363.09375 750.742188 C 362.683594 752.804688 362.222656 754.855469 361.710938 756.894531 C 361.203125 758.929688 360.640625 760.957031 360.03125 762.96875 C 359.421875 764.980469 358.761719 766.972656 358.054688 768.953125 C 357.347656 770.929688 356.589844 772.890625 355.785156 774.832031 C 354.980469 776.773438 354.128906 778.695312 353.230469 780.59375 C 352.332031 782.496094 351.386719 784.371094 350.398438 786.226562 C 349.40625 788.078125 348.371094 789.90625 347.289062 791.710938 C 346.210938 793.511719 345.085938 795.289062 343.917969 797.035156 C 342.75 798.78125 341.539062 800.5 340.289062 802.1875 C 339.035156 803.875 337.746094 805.53125 336.410156 807.15625 C 335.078125 808.78125 333.707031 810.375 332.292969 811.929688 C 330.882812 813.488281 329.433594 815.007812 327.949219 816.496094 C 326.460938 817.980469 324.941406 819.429688 323.382812 820.839844 C 321.824219 822.253906 320.234375 823.625 318.609375 824.957031 C 316.984375 826.292969 315.328125 827.585938 313.640625 828.835938 C 311.953125 830.089844 310.234375 831.296875 308.488281 832.464844 C 306.738281 833.632812 304.964844 834.757812 303.164062 835.839844 C 301.359375 836.917969 299.53125 837.953125 297.679688 838.945312 C 295.824219 839.9375 293.949219 840.878906 292.046875 841.777344 C 290.148438 842.675781 288.226562 843.527344 286.285156 844.332031 C 284.34375 845.136719 282.382812 845.894531 280.40625 846.601562 C 278.425781 847.308594 276.429688 847.96875 274.417969 848.578125 C 272.410156 849.1875 270.382812 849.75 268.34375 850.261719 C 266.304688 850.769531 264.257812 851.230469 262.195312 851.640625 C 260.132812 852.050781 258.0625 852.410156 255.984375 852.71875 C 253.90625 853.027344 251.820312 853.285156 249.730469 853.492188 C 247.636719 853.695312 245.542969 853.851562 243.441406 853.953125 C 241.34375 854.058594 239.242188 854.109375 237.140625 854.109375 C 235.039062 854.109375 232.9375 854.058594 230.839844 853.953125 C 228.738281 853.851562 226.644531 853.695312 224.550781 853.492188 C 222.460938 853.285156 220.375 853.027344 218.296875 852.71875 C 216.21875 852.410156 214.148438 852.050781 212.085938 851.640625 C 210.023438 851.230469 207.972656 850.769531 205.9375 850.261719 C 203.898438 849.75 201.871094 849.1875 199.859375 848.578125 C 197.851562 847.96875 195.855469 847.308594 193.875 846.601562 C 191.898438 845.894531 189.9375 845.136719 187.996094 844.332031 C 186.054688 843.527344 184.132812 842.675781 182.234375 841.777344 C 180.332031 840.878906 178.457031 839.9375 176.601562 838.945312 C 174.75 837.953125 172.921875 836.917969 171.117188 835.839844 C 169.316406 834.757812 167.539062 833.632812 165.792969 832.464844 C 164.046875 831.296875 162.328125 830.089844 160.640625 828.835938 C 158.953125 827.585938 157.296875 826.292969 155.671875 824.957031 C 154.046875 823.625 152.457031 822.253906 150.898438 820.839844 C 149.339844 819.429688 147.820312 817.980469 146.332031 816.496094 C 144.847656 815.007812 143.398438 813.488281 141.988281 811.929688 C 140.574219 810.375 139.203125 808.78125 137.871094 807.15625 C 136.535156 805.53125 135.242188 803.875 133.992188 802.1875 C 132.738281 800.5 131.53125 798.78125 130.363281 797.035156 C 129.195312 795.289062 128.070312 793.511719 126.992188 791.710938 C 125.910156 789.90625 124.875 788.078125 123.882812 786.226562 C 122.894531 784.371094 121.949219 782.496094 121.050781 780.59375 C 120.152344 778.695312 119.300781 776.773438 118.496094 774.832031 C 117.691406 772.890625 116.933594 770.929688 116.226562 768.953125 C 115.519531 766.972656 114.859375 764.980469 114.25 762.96875 C 113.640625 760.957031 113.078125 758.929688 112.570312 756.894531 C 112.058594 754.855469 111.597656 752.804688 111.1875 750.742188 C 110.777344 748.679688 110.417969 746.609375 110.109375 744.53125 C 109.800781 742.453125 109.542969 740.367188 109.339844 738.277344 C 109.132812 736.183594 108.976562 734.089844 108.875 731.992188 C 108.773438 729.890625 108.71875 727.792969 108.71875 725.6875 L 108.71875 255.859375 C 108.71875 253.757812 108.773438 251.65625 108.875 249.558594 C 108.976562 247.457031 109.132812 245.363281 109.339844 243.269531 C 109.542969 241.179688 109.800781 239.09375 110.109375 237.015625 C 110.417969 234.9375 110.777344 232.867188 111.1875 230.804688 C 111.597656 228.742188 112.058594 226.691406 112.570312 224.65625 C 113.078125 222.617188 113.640625 220.589844 114.25 218.578125 C 114.859375 216.570312 115.519531 214.574219 116.226562 212.59375 C 116.933594 210.617188 117.691406 208.65625 118.496094 206.714844 C 119.300781 204.773438 120.152344 202.851562 121.050781 200.953125 C 121.949219 199.050781 122.894531 197.175781 123.882812 195.320312 C 124.875 193.46875 125.910156 191.640625 126.992188 189.835938 C 128.070312 188.035156 129.195312 186.257812 130.363281 184.511719 C 131.53125 182.765625 132.738281 181.046875 133.992188 179.359375 C 135.242188 177.671875 136.535156 176.015625 137.871094 174.390625 C 139.203125 172.765625 140.574219 171.175781 141.988281 169.617188 C 143.398438 168.058594 144.847656 166.539062 146.332031 165.050781 C 147.820312 163.566406 149.339844 162.117188 150.898438 160.707031 C 152.457031 159.292969 154.046875 157.921875 155.671875 156.589844 C 157.296875 155.253906 158.953125 153.960938 160.640625 152.710938 C 162.328125 151.457031 164.046875 150.25 165.792969 149.082031 C 167.539062 147.914062 169.316406 146.789062 171.117188 145.710938 C 172.921875 144.628906 174.75 143.59375 176.601562 142.601562 C 178.457031 141.613281 180.332031 140.667969 182.234375 139.769531 C 184.132812 138.871094 186.054688 138.019531 187.996094 137.214844 C 189.9375 136.410156 191.898438 135.652344 193.875 134.945312 C 195.855469 134.238281 197.851562 133.578125 199.859375 132.96875 C 201.871094 132.359375 203.898438 131.796875 205.9375 131.289062 C 207.972656 130.777344 210.023438 130.316406 212.085938 129.90625 C 214.148438 129.496094 216.21875 129.136719 218.296875 128.828125 C 220.375 128.519531 222.460938 128.261719 224.550781 128.058594 C 226.644531 127.851562 228.738281 127.695312 230.839844 127.59375 C 232.9375 127.488281 235.039062 127.4375 237.140625 127.4375 Z M 237.140625 127.4375 " fill-opacity="1" fill-rule="evenodd"/></g><g clip-path="url(#738050f1f0)"><path fill="#11999e" d="M 365.5625 384.28125 L 365.5625 432.820312 C 154.519531 432.820312 114.84375 338.117188 108.71875 287.425781 L 108.71875 256.25 L 108.726562 256.25 C 108.9375 326.703125 166.640625 384.28125 237.140625 384.28125 Z M 553.492188 462.578125 C 624.125 462.578125 681.914062 520.367188 681.914062 590.996094 L 681.914062 725.6875 C 681.914062 796.320312 624.125 854.109375 553.492188 854.109375 C 482.859375 854.109375 425.074219 796.320312 425.074219 725.6875 L 425.074219 590.996094 C 425.074219 520.367188 482.859375 462.578125 553.492188 462.578125 Z M 553.492188 462.578125 " fill-opacity="1" fill-rule="evenodd"/></g><g clip-path="url(#4fd80ed961)"><path fill="#30e3ca" d="M 835.390625 255.859375 C 835.390625 257.960938 835.339844 260.058594 835.234375 262.160156 C 835.132812 264.257812 834.976562 266.351562 834.773438 268.445312 C 834.566406 270.535156 834.308594 272.621094 834 274.699219 C 833.691406 276.78125 833.332031 278.851562 832.921875 280.910156 C 832.511719 282.972656 832.050781 285.023438 831.542969 287.0625 C 831.03125 289.097656 830.46875 291.125 829.859375 293.136719 C 829.25 295.148438 828.589844 297.140625 827.882812 299.121094 C 827.175781 301.097656 826.417969 303.058594 825.613281 305 C 824.808594 306.941406 823.957031 308.863281 823.058594 310.765625 C 822.160156 312.664062 821.21875 314.539062 820.226562 316.394531 C 819.234375 318.246094 818.199219 320.074219 817.121094 321.878906 C 816.039062 323.679688 814.914062 325.457031 813.746094 327.203125 C 812.578125 328.949219 811.371094 330.667969 810.117188 332.355469 C 808.867188 334.042969 807.574219 335.699219 806.238281 337.324219 C 804.90625 338.949219 803.535156 340.542969 802.121094 342.097656 C 800.710938 343.65625 799.261719 345.175781 797.777344 346.664062 C 796.289062 348.148438 794.769531 349.597656 793.210938 351.011719 C 791.652344 352.421875 790.0625 353.792969 788.4375 355.125 C 786.8125 356.460938 785.15625 357.753906 783.46875 359.003906 C 781.78125 360.257812 780.0625 361.464844 778.316406 362.632812 C 776.566406 363.800781 774.792969 364.925781 772.988281 366.007812 C 771.1875 367.085938 769.359375 368.121094 767.503906 369.113281 C 765.652344 370.105469 763.773438 371.046875 761.875 371.945312 C 759.976562 372.84375 758.054688 373.695312 756.113281 374.5 C 754.171875 375.304688 752.210938 376.0625 750.230469 376.769531 C 748.253906 377.476562 746.257812 378.136719 744.246094 378.746094 C 742.234375 379.355469 740.210938 379.917969 738.171875 380.429688 C 736.132812 380.9375 734.082031 381.398438 732.023438 381.808594 C 729.960938 382.21875 727.890625 382.578125 725.8125 382.886719 C 723.730469 383.195312 721.648438 383.453125 719.554688 383.660156 C 717.464844 383.863281 715.367188 384.019531 713.269531 384.121094 C 711.167969 384.226562 709.070312 384.277344 706.96875 384.277344 L 237.144531 384.277344 C 235.042969 384.277344 232.941406 384.226562 230.839844 384.121094 C 228.742188 384.019531 226.648438 383.863281 224.554688 383.660156 C 222.464844 383.453125 220.378906 383.195312 218.300781 382.886719 C 216.21875 382.578125 214.148438 382.21875 212.089844 381.808594 C 210.027344 381.398438 207.976562 380.9375 205.9375 380.429688 C 203.898438 379.917969 201.875 379.355469 199.863281 378.746094 C 197.851562 378.136719 195.859375 377.476562 193.878906 376.769531 C 191.898438 376.0625 189.941406 375.304688 187.996094 374.5 C 186.054688 373.695312 184.136719 372.84375 182.234375 371.945312 C 180.335938 371.046875 178.457031 370.105469 176.605469 369.113281 C 174.75 368.121094 172.921875 367.085938 171.121094 366.007812 C 169.316406 364.925781 167.542969 363.800781 165.796875 362.632812 C 164.046875 361.464844 162.328125 360.257812 160.640625 359.003906 C 158.953125 357.753906 157.296875 356.460938 155.671875 355.125 C 154.046875 353.792969 152.457031 352.421875 150.898438 351.011719 C 149.34375 349.597656 147.820312 348.148438 146.335938 346.664062 C 144.847656 345.175781 143.398438 343.65625 141.988281 342.097656 C 140.578125 340.542969 139.203125 338.949219 137.871094 337.324219 C 136.539062 335.699219 135.246094 334.042969 133.992188 332.355469 C 132.742188 330.667969 131.53125 328.949219 130.363281 327.203125 C 129.195312 325.457031 128.070312 323.679688 126.992188 321.878906 C 125.910156 320.074219 124.875 318.246094 123.882812 316.394531 C 122.894531 314.539062 121.949219 312.664062 121.050781 310.765625 C 120.152344 308.863281 119.300781 306.941406 118.496094 305 C 117.691406 303.058594 116.933594 301.097656 116.226562 299.121094 C 115.519531 297.140625 114.859375 295.148438 114.25 293.136719 C 113.640625 291.125 113.078125 289.097656 112.570312 287.0625 C 112.058594 285.023438 111.597656 282.972656 111.1875 280.910156 C 110.777344 278.851562 110.417969 276.78125 110.109375 274.699219 C 109.800781 272.621094 109.542969 270.535156 109.339844 268.445312 C 109.132812 266.351562 108.976562 264.257812 108.875 262.160156 C 108.773438 260.058594 108.71875 257.960938 108.71875 255.859375 C 108.71875 253.757812 108.773438 251.65625 108.875 249.554688 C 108.976562 247.457031 109.132812 245.363281 109.339844 243.269531 C 109.542969 241.179688 109.800781 239.09375 110.109375 237.015625 C 110.417969 234.9375 110.777344 232.867188 111.1875 230.804688 C 111.597656 228.742188 112.058594 226.691406 112.570312 224.65625 C 113.078125 222.617188 113.640625 220.589844 114.25 218.578125 C 114.859375 216.570312 115.519531 214.574219 116.226562 212.59375 C 116.933594 210.617188 117.691406 208.65625 118.496094 206.714844 C 119.300781 204.773438 120.152344 202.851562 121.050781 200.953125 C 121.949219 199.050781 122.894531 197.175781 123.882812 195.320312 C 124.875 193.46875 125.910156 191.640625 126.992188 189.835938 C 128.070312 188.035156 129.195312 186.257812 130.363281 184.511719 C 131.53125 182.765625 132.742188 181.046875 133.992188 179.359375 C 135.246094 177.671875 136.539062 176.015625 137.871094 174.390625 C 139.203125 172.765625 140.578125 171.175781 141.988281 169.617188 C 143.398438 168.058594 144.847656 166.539062 146.335938 165.050781 C 147.820312 163.566406 149.34375 162.117188 150.898438 160.707031 C 152.457031 159.292969 154.046875 157.921875 155.671875 156.589844 C 157.296875 155.253906 158.953125 153.960938 160.640625 152.710938 C 162.328125 151.457031 164.046875 150.25 165.796875 149.082031 C 167.542969 147.914062 169.316406 146.789062 171.121094 145.710938 C 172.921875 144.628906 174.75 143.59375 176.605469 142.601562 C 178.457031 141.613281 180.335938 140.667969 182.234375 139.769531 C 184.136719 138.871094 186.054688 138.019531 187.996094 137.214844 C 189.941406 136.410156 191.898438 135.652344 193.878906 134.945312 C 195.859375 134.238281 197.851562 133.578125 199.863281 132.96875 C 201.875 132.359375 203.898438 131.796875 205.9375 131.289062 C 207.976562 130.777344 210.027344 130.316406 212.089844 129.90625 C 214.148438 129.496094 216.21875 129.136719 218.300781 128.828125 C 220.378906 128.519531 222.464844 128.261719 224.554688 128.058594 C 226.648438 127.851562 228.742188 127.695312 230.839844 127.59375 C 232.941406 127.488281 235.042969 127.4375 237.144531 127.4375 L 706.96875 127.4375 C 709.070312 127.4375 711.167969 127.488281 713.269531 127.59375 C 715.367188 127.695312 717.464844 127.851562 719.554688 128.058594 C 721.648438 128.261719 723.730469 128.519531 725.8125 128.828125 C 727.890625 129.136719 729.960938 129.496094 732.023438 129.90625 C 734.082031 130.316406 736.132812 130.777344 738.171875 131.289062 C 740.210938 131.796875 742.234375 132.359375 744.246094 132.96875 C 746.257812 133.578125 748.253906 134.238281 750.230469 134.945312 C 752.210938 135.652344 754.171875 136.410156 756.113281 137.214844 C 758.054688 138.019531 759.976562 138.871094 761.875 139.769531 C 763.773438 140.667969 765.652344 141.613281 767.503906 142.601562 C 769.359375 143.59375 771.1875 144.628906 772.988281 145.710938 C 774.792969 146.789062 776.566406 147.914062 778.316406 149.082031 C 780.0625 150.25 781.78125 151.457031 783.46875 152.710938 C 785.15625 153.960938 786.8125 155.253906 788.4375 156.589844 C 790.0625 157.921875 791.652344 159.292969 793.210938 160.707031 C 794.769531 162.117188 796.289062 163.566406 797.777344 165.050781 C 799.261719 166.539062 800.710938 168.058594 802.121094 169.617188 C 803.535156 171.175781 804.90625 172.765625 806.238281 174.390625 C 807.574219 176.015625 808.867188 177.671875 810.117188 179.359375 C 811.371094 181.046875 812.578125 182.765625 813.746094 184.511719 C 814.914062 186.257812 816.039062 188.035156 817.121094 189.835938 C 818.199219 191.640625 819.234375 193.46875 820.226562 195.320312 C 821.21875 197.175781 822.160156 199.050781 823.058594 200.953125 C 823.957031 202.851562 824.808594 204.773438 825.613281 206.714844 C 826.417969 208.65625 827.175781 210.617188 827.882812 212.59375 C 828.589844 214.574219 829.25 216.570312 829.859375 218.578125 C 830.46875 220.589844 831.03125 222.617188 831.542969 224.65625 C 832.050781 226.691406 832.511719 228.742188 832.921875 230.804688 C 833.332031 232.867188 833.691406 234.9375 834 237.015625 C 834.308594 239.09375 834.566406 241.179688 834.773438 243.269531 C 834.976562 245.363281 835.132812 247.457031 835.234375 249.554688 C 835.339844 251.65625 835.390625 253.757812 835.390625 255.859375 Z M 835.390625 255.859375 " fill-opacity="1" fill-rule="evenodd"/></g></svg>