<svg xmlns="http://www.w3.org/2000/svg" xmlns:xlink="http://www.w3.org/1999/xlink" width="1080" zoomAndPan="magnify" viewBox="0 0 810 974.999993" height="1300" preserveAspectRatio="xMidYMid meet" version="1.0"><path fill="#fc8760" d="M 497.960938 875.5625 L 493.359375 927.597656 L 433.332031 917.917969 L 450.277344 871.445312 Z M 497.960938 875.5625 " fill-opacity="1" fill-rule="evenodd"/><path fill="#fc8760" d="M 678.527344 850.148438 L 691.117188 909.929688 L 640.042969 912.351562 L 634.960938 848.9375 Z M 678.527344 850.148438 " fill-opacity="1" fill-rule="evenodd"/><path fill="#d1592e" d="M 726.210938 957.125 C 728.390625 957.125 745.820312 959.789062 747.753906 954.949219 C 750.417969 948.414062 747.753906 941.394531 742.1875 938.007812 C 718.46875 923.242188 699.34375 885.96875 699.34375 885.96875 C 699.34375 885.96875 695.957031 878.464844 685.304688 879.917969 C 674.65625 881.371094 680.222656 935.101562 698.617188 941.878906 C 717.257812 948.65625 726.210938 957.125 726.210938 957.125 Z M 726.210938 957.125 " fill-opacity="1" fill-rule="nonzero"/><path fill="#d1592e" d="M 683.371094 885.484375 C 681.917969 881.613281 672.71875 881.371094 670.300781 884.515625 C 668.847656 886.453125 667.394531 888.148438 666.425781 888.628906 C 654.808594 893.957031 646.820312 894.683594 634.476562 888.871094 C 633.75 888.628906 633.023438 889.113281 633.023438 890.082031 L 629.636719 930.746094 C 629.152344 935.101562 627.214844 956.160156 631.085938 956.160156 C 650.691406 956.402344 705.15625 958.335938 733.714844 956.402344 C 734.199219 956.402344 734.683594 955.917969 734.925781 955.433594 C 736.378906 953.253906 735.652344 951.800781 736.136719 950.351562 C 740.007812 937.28125 718.710938 938.25 700.554688 922.757812 L 697.167969 919.371094 C 693.535156 915.496094 689.664062 907.507812 688.695312 901.699219 L 683.855469 885.96875 C 683.613281 885.96875 683.371094 885.726562 683.371094 885.484375 Z M 683.371094 885.484375 " fill-opacity="1" fill-rule="nonzero"/><path fill="#0f1323" d="M 709.753906 931.957031 C 708.785156 931.957031 707.574219 931.714844 706.847656 930.746094 C 705.878906 930.019531 705.394531 928.808594 705.394531 927.839844 C 705.394531 926.628906 705.636719 925.664062 706.605469 924.9375 C 708.300781 923.242188 710.964844 923.242188 712.65625 924.695312 C 713.625 925.421875 714.109375 926.628906 714.109375 927.597656 C 714.109375 928.808594 713.867188 929.777344 712.898438 930.503906 C 711.933594 931.472656 710.722656 931.957031 709.753906 931.957031 Z M 709.511719 925.90625 C 709.027344 925.90625 708.542969 926.144531 708.058594 926.386719 C 707.816406 926.628906 707.574219 927.113281 707.574219 927.597656 C 707.574219 928.082031 707.816406 928.566406 708.058594 928.808594 C 708.785156 929.535156 709.996094 929.535156 710.722656 928.808594 C 710.964844 928.566406 711.207031 928.082031 711.207031 927.597656 C 711.207031 927.113281 710.964844 926.628906 710.722656 926.386719 C 710.480469 926.144531 709.996094 925.90625 709.511719 925.90625 Z M 709.511719 925.90625 " fill-opacity="1" fill-rule="nonzero"/><path fill="#0f1323" d="M 702.007812 921.304688 C 701.039062 921.304688 699.828125 921.0625 699.101562 920.09375 C 698.136719 919.371094 697.652344 918.160156 697.652344 917.191406 C 697.652344 915.980469 698.136719 915.011719 698.859375 914.285156 C 700.554688 912.59375 703.21875 912.59375 704.914062 914.042969 C 705.878906 914.769531 706.363281 915.980469 706.363281 916.949219 C 706.363281 918.160156 706.121094 919.128906 705.15625 919.851562 C 704.429688 920.820312 703.21875 921.304688 702.007812 921.304688 Z M 702.007812 915.253906 C 701.523438 915.253906 701.039062 915.496094 700.554688 915.738281 C 700.3125 915.980469 700.070312 916.464844 700.070312 916.949219 C 700.070312 917.433594 700.3125 917.917969 700.554688 918.160156 C 701.28125 918.886719 702.492188 918.886719 703.21875 918.160156 C 703.460938 917.917969 703.703125 917.433594 703.703125 916.949219 C 703.703125 916.464844 703.460938 915.980469 703.21875 915.738281 C 702.976562 915.496094 702.492188 915.496094 702.007812 915.253906 Z M 702.007812 915.253906 " fill-opacity="1" fill-rule="nonzero"/><path fill="#0f1323" d="M 696.199219 912.351562 C 695.230469 912.351562 694.019531 912.109375 693.292969 911.140625 C 692.324219 910.414062 691.839844 909.203125 691.839844 908.234375 C 691.839844 907.027344 692.082031 906.058594 693.050781 905.332031 C 694.746094 903.636719 697.410156 903.636719 699.101562 905.089844 C 700.070312 905.816406 700.554688 907.027344 700.554688 907.992188 C 700.554688 909.203125 700.3125 910.171875 699.34375 910.898438 C 698.378906 911.867188 697.167969 912.351562 696.199219 912.351562 Z M 695.957031 906.300781 C 695.472656 906.300781 694.988281 906.542969 694.503906 906.785156 C 694.261719 907.027344 694.019531 907.507812 694.019531 907.992188 C 694.019531 908.476562 694.261719 908.960938 694.503906 909.203125 C 695.230469 909.929688 696.441406 909.929688 697.167969 909.203125 C 697.410156 908.960938 697.652344 908.476562 697.652344 907.992188 C 697.652344 907.507812 697.410156 907.027344 697.167969 906.785156 C 696.925781 906.542969 696.441406 906.542969 695.957031 906.300781 Z M 695.957031 906.300781 " fill-opacity="1" fill-rule="nonzero"/><path fill="#0f1323" d="M 690.632812 901.699219 C 689.664062 901.699219 688.453125 901.457031 687.726562 900.492188 C 686.757812 899.765625 686.273438 898.554688 686.273438 897.585938 C 686.273438 896.375 686.515625 895.40625 687.484375 894.683594 C 689.179688 892.988281 691.839844 892.988281 693.535156 894.441406 C 694.503906 895.164062 694.988281 896.375 694.988281 897.34375 C 694.988281 898.554688 694.746094 899.523438 693.777344 900.25 C 692.808594 901.214844 691.601562 901.699219 690.632812 901.699219 Z M 690.390625 895.648438 C 689.90625 895.648438 689.421875 895.890625 688.9375 896.132812 C 688.695312 896.375 688.453125 896.859375 688.453125 897.34375 C 688.453125 897.828125 688.695312 898.3125 688.9375 898.554688 C 689.664062 899.28125 690.875 899.28125 691.601562 898.554688 C 691.839844 898.3125 692.082031 897.828125 692.082031 897.34375 C 692.082031 896.859375 691.839844 896.375 691.601562 896.132812 C 691.359375 895.890625 690.875 895.648438 690.390625 895.648438 Z M 690.390625 895.648438 " fill-opacity="1" fill-rule="nonzero"/><path fill="#0f1323" d="M 746.0625 948.898438 C 723.308594 948.65625 704.914062 948.65625 687 948.414062 C 670.300781 948.414062 654.082031 948.171875 635.445312 947.929688 C 634.71875 947.929688 634.234375 947.445312 634.234375 946.71875 C 634.234375 945.992188 634.71875 945.507812 635.445312 945.507812 C 654.082031 945.75 670.300781 945.75 687 945.992188 C 704.914062 945.992188 723.308594 946.234375 746.0625 946.476562 C 746.785156 946.476562 747.269531 946.960938 747.269531 947.6875 C 747.269531 948.414062 746.785156 948.898438 746.0625 948.898438 Z M 746.0625 948.898438 " fill-opacity="1" fill-rule="nonzero"/><path fill="#cefeeb" d="M 690.390625 897.828125 C 689.90625 897.828125 689.664062 897.585938 689.421875 897.34375 C 688.9375 896.859375 689.179688 896.132812 689.664062 895.648438 C 692.082031 893.957031 703.21875 892.503906 706.605469 894.199219 C 707.332031 894.441406 707.574219 895.164062 707.332031 895.648438 C 707.089844 896.375 706.363281 896.617188 705.878906 896.375 C 702.976562 895.164062 692.808594 896.375 691.117188 897.585938 C 690.875 897.828125 690.632812 897.828125 690.390625 897.828125 Z M 690.390625 897.828125 " fill-opacity="1" fill-rule="nonzero"/><path fill="#cefeeb" d="M 697.410156 907.992188 C 696.925781 907.992188 696.683594 907.75 696.441406 907.507812 C 695.957031 907.027344 696.199219 906.300781 696.683594 905.816406 C 699.101562 904.121094 710.238281 902.667969 713.625 904.363281 C 714.351562 904.605469 714.59375 905.332031 714.351562 905.816406 C 714.109375 906.542969 713.382812 906.785156 712.898438 906.542969 C 709.996094 905.332031 699.828125 906.542969 698.136719 907.75 C 697.894531 907.992188 697.652344 907.992188 697.410156 907.992188 Z M 697.410156 907.992188 " fill-opacity="1" fill-rule="nonzero"/><path fill="#cefeeb" d="M 702.734375 918.160156 C 702.25 918.160156 702.007812 917.917969 701.765625 917.675781 C 701.28125 917.191406 701.523438 916.464844 702.007812 915.980469 C 704.429688 914.285156 715.5625 912.835938 718.953125 914.527344 C 719.675781 914.769531 719.917969 915.496094 719.675781 915.980469 C 719.433594 916.707031 718.710938 916.949219 718.226562 916.707031 C 715.320312 915.496094 705.15625 916.707031 703.460938 917.917969 C 703.21875 917.917969 702.976562 918.160156 702.734375 918.160156 Z M 702.734375 918.160156 " fill-opacity="1" fill-rule="nonzero"/><path fill="#cefeeb" d="M 711.449219 928.324219 C 710.964844 928.324219 710.722656 928.082031 710.480469 927.839844 C 709.996094 927.355469 710.238281 926.628906 710.722656 926.144531 C 713.140625 924.453125 724.277344 923 727.664062 924.695312 C 728.390625 924.9375 728.632812 925.664062 728.390625 926.144531 C 728.148438 926.871094 727.421875 927.113281 726.9375 926.871094 C 724.035156 925.664062 713.867188 926.871094 712.175781 928.082031 C 711.933594 928.082031 711.691406 928.082031 711.449219 928.324219 Z M 711.449219 928.324219 " fill-opacity="1" fill-rule="nonzero"/><path fill="#cefeeb" d="M 651.660156 924.695312 C 648.273438 924.695312 645.125 923.484375 642.464844 921.304688 C 639.800781 918.886719 638.105469 915.738281 638.105469 912.109375 C 638.105469 908.71875 639.316406 905.574219 641.738281 902.910156 C 646.820312 897.828125 655.292969 897.585938 660.617188 902.425781 C 663.28125 904.847656 664.972656 907.992188 664.972656 911.625 C 664.972656 915.011719 663.765625 918.160156 661.34375 920.820312 C 658.679688 923.484375 655.050781 924.695312 651.660156 924.695312 Z M 643.914062 919.371094 C 648.515625 923.242188 655.292969 923.242188 659.40625 918.886719 C 661.34375 916.949219 662.3125 914.285156 662.3125 911.625 C 662.3125 908.71875 660.859375 906.300781 658.679688 904.121094 C 654.082031 900.25 647.304688 900.25 643.191406 904.605469 C 641.253906 906.542969 640.285156 909.203125 640.285156 911.867188 C 640.527344 914.769531 641.738281 917.433594 643.914062 919.371094 Z M 643.914062 919.371094 " fill-opacity="1" fill-rule="nonzero"/><path fill="#cefeeb" d="M 648.757812 918.160156 C 649 920.335938 649.96875 920.335938 650.933594 918.644531 C 651.902344 916.949219 654.566406 915.738281 656.746094 916.222656 C 658.921875 916.707031 659.40625 915.980469 657.953125 914.285156 C 656.503906 912.835938 656.261719 910.171875 657.226562 908.234375 C 658.4375 906.542969 657.710938 905.816406 655.777344 906.542969 C 653.839844 907.507812 650.933594 906.785156 649.726562 905.089844 C 648.273438 903.394531 647.304688 903.878906 647.546875 906.058594 C 647.789062 908.234375 646.335938 910.414062 644.398438 911.140625 C 642.464844 911.867188 642.464844 912.835938 644.640625 913.320312 C 646.820312 913.800781 648.515625 915.980469 648.757812 918.160156 Z M 648.757812 918.160156 " fill-opacity="1" fill-rule="nonzero"/><path fill="#0f1323" d="M 687 904.363281 C 686.515625 904.363281 686.03125 904.121094 685.789062 903.636719 C 683.371094 897.828125 680.949219 885.726562 680.707031 885.242188 C 680.707031 884.515625 680.949219 884.03125 681.675781 883.789062 C 682.402344 883.789062 682.886719 884.03125 683.128906 884.757812 C 683.128906 884.757812 685.546875 897.101562 687.96875 902.667969 C 688.210938 903.152344 687.96875 903.878906 687.242188 904.363281 C 687.242188 904.363281 687.242188 904.363281 687 904.363281 Z M 687 904.363281 " fill-opacity="1" fill-rule="nonzero"/><path fill="#d1592e" d="M 361.445312 938.007812 C 418.324219 921.546875 427.523438 886.9375 427.523438 886.9375 C 427.523438 886.9375 431.152344 879.675781 441.5625 881.371094 C 441.804688 881.371094 442.53125 881.613281 443.742188 881.613281 C 448.097656 882.097656 452.210938 884.515625 454.390625 888.390625 C 454.875 889.355469 465.28125 893.714844 466.007812 894.199219 C 477.628906 900.007812 488.277344 897.34375 500.621094 891.535156 C 501.347656 891.292969 502.074219 892.019531 502.074219 892.988281 L 504.496094 933.648438 C 504.738281 936.3125 504.738281 943.332031 504.496094 948.65625 C 504.253906 952.527344 501.105469 955.675781 497.234375 955.917969 C 477.628906 956.402344 380.808594 954.707031 361.203125 954.464844 C 357.8125 954.464844 355.148438 951.316406 355.632812 948.171875 C 356.117188 943.816406 357.085938 939.214844 361.445312 938.007812 Z M 361.445312 938.007812 " fill-opacity="1" fill-rule="nonzero"/><path fill="#0f1323" d="M 416.148438 932.679688 C 414.9375 932.679688 413.726562 932.195312 413 931.230469 C 412.273438 930.503906 411.789062 929.292969 412.03125 928.324219 C 412.03125 927.113281 412.515625 926.144531 413.484375 925.421875 C 415.179688 923.96875 418.082031 923.96875 419.535156 925.664062 C 420.261719 926.386719 420.746094 927.597656 420.746094 928.566406 C 420.746094 929.777344 420.261719 930.746094 419.292969 931.472656 C 418.324219 932.4375 417.113281 932.679688 416.148438 932.679688 Z M 416.390625 926.871094 C 415.90625 926.871094 415.421875 927.113281 414.9375 927.355469 C 414.453125 927.597656 414.453125 928.082031 414.210938 928.566406 C 414.210938 929.050781 414.453125 929.535156 414.695312 929.777344 C 415.421875 930.503906 416.632812 930.503906 417.355469 929.777344 C 417.839844 929.535156 417.839844 929.050781 418.082031 928.566406 C 418.324219 928.082031 417.839844 927.597656 417.597656 927.355469 C 417.355469 926.871094 416.871094 926.871094 416.390625 926.871094 Z M 416.390625 926.871094 " fill-opacity="1" fill-rule="nonzero"/><path fill="#0f1323" d="M 424.132812 922.273438 C 422.925781 922.273438 421.714844 921.789062 420.988281 920.820312 C 420.261719 920.09375 419.777344 918.886719 419.777344 917.917969 C 419.777344 916.707031 420.261719 915.738281 421.230469 915.011719 C 422.925781 913.558594 425.828125 913.558594 427.28125 915.253906 C 428.007812 915.980469 428.492188 917.191406 428.492188 918.160156 C 428.492188 919.371094 428.007812 920.335938 427.039062 921.0625 C 426.070312 922.03125 425.101562 922.273438 424.132812 922.273438 Z M 426.070312 920.335938 Z M 424.132812 916.464844 C 423.648438 916.464844 423.167969 916.707031 422.925781 916.949219 C 422.441406 917.191406 422.441406 917.675781 422.199219 918.160156 C 422.199219 918.644531 422.199219 919.128906 422.683594 919.371094 C 423.410156 920.09375 424.617188 920.09375 425.34375 919.371094 C 425.828125 919.128906 425.828125 918.644531 426.070312 918.160156 C 426.3125 917.675781 426.070312 917.191406 425.585938 916.949219 C 425.101562 916.464844 424.617188 916.464844 424.132812 916.464844 Z M 424.132812 916.464844 " fill-opacity="1" fill-rule="nonzero"/><path fill="#0f1323" d="M 430.1875 913.558594 C 428.976562 913.558594 427.765625 913.078125 427.039062 912.109375 C 426.3125 911.382812 425.828125 910.171875 425.828125 909.203125 C 425.828125 907.992188 426.3125 907.027344 427.28125 906.300781 C 428.976562 904.847656 431.878906 904.847656 433.332031 906.542969 C 434.058594 907.265625 434.542969 908.476562 434.542969 909.445312 C 434.542969 910.65625 434.058594 911.625 433.089844 912.351562 C 432.363281 913.320312 431.394531 913.558594 430.1875 913.558594 Z M 432.363281 911.625 Z M 430.429688 907.507812 C 429.945312 907.507812 429.460938 907.75 429.21875 907.992188 C 428.734375 908.234375 428.734375 908.71875 428.492188 909.203125 C 428.492188 909.6875 428.492188 910.171875 428.976562 910.414062 C 429.703125 911.140625 430.910156 911.140625 431.636719 910.414062 C 432.121094 910.171875 432.121094 909.6875 432.363281 909.203125 C 432.605469 908.71875 432.363281 908.234375 431.878906 907.992188 C 431.394531 907.75 430.910156 907.507812 430.429688 907.507812 Z M 430.429688 907.507812 " fill-opacity="1" fill-rule="nonzero"/><path fill="#0f1323" d="M 436.238281 902.910156 C 435.027344 902.910156 433.816406 902.425781 433.089844 901.457031 C 432.363281 900.734375 431.878906 899.523438 431.878906 898.554688 C 431.878906 897.34375 432.363281 896.375 433.332031 895.648438 C 435.027344 894.199219 437.929688 894.199219 439.382812 895.890625 C 440.109375 896.617188 440.59375 897.828125 440.59375 898.796875 C 440.59375 900.007812 440.109375 900.972656 439.140625 901.699219 C 438.171875 902.667969 437.207031 902.910156 436.238281 902.910156 Z M 436.238281 896.859375 C 435.753906 896.859375 435.269531 897.101562 435.027344 897.34375 C 434.542969 897.585938 434.542969 898.070312 434.300781 898.554688 C 434.300781 899.039062 434.300781 899.523438 434.785156 899.765625 C 435.511719 900.492188 436.722656 900.492188 437.445312 899.765625 C 437.929688 899.523438 437.929688 899.039062 438.171875 898.554688 C 438.414062 898.070312 438.171875 897.585938 437.6875 897.34375 C 437.207031 897.101562 436.722656 896.859375 436.238281 896.859375 Z M 436.238281 896.859375 " fill-opacity="1" fill-rule="nonzero"/><path fill="#0f1323" d="M 499.652344 949.867188 C 496.023438 949.867188 489.246094 949.625 480.53125 949.625 C 449.792969 949.140625 398.476562 947.929688 369.671875 948.171875 C 368.945312 948.171875 368.464844 947.6875 368.464844 946.960938 C 368.464844 946.234375 368.945312 945.75 369.671875 945.75 C 398.71875 945.75 450.035156 946.71875 480.53125 947.203125 C 489.246094 947.445312 496.023438 947.445312 499.652344 947.445312 C 500.378906 947.445312 500.863281 947.929688 500.863281 948.65625 C 500.863281 949.140625 500.136719 949.867188 499.652344 949.867188 Z M 499.652344 949.867188 " fill-opacity="1" fill-rule="nonzero"/><path fill="#cefeeb" d="M 436.238281 899.28125 C 435.996094 899.28125 435.753906 899.28125 435.511719 899.039062 C 433.816406 897.828125 423.890625 896.132812 420.746094 897.34375 C 420.019531 897.585938 419.535156 897.34375 419.292969 896.617188 C 419.050781 895.890625 419.292969 895.40625 420.019531 895.164062 C 423.648438 893.714844 434.542969 895.40625 436.964844 897.101562 C 437.445312 897.585938 437.6875 898.3125 437.207031 898.796875 C 436.964844 899.039062 436.480469 899.28125 436.238281 899.28125 Z M 436.238281 899.28125 " fill-opacity="1" fill-rule="nonzero"/><path fill="#cefeeb" d="M 428.976562 909.203125 C 428.734375 909.203125 428.492188 909.203125 428.25 908.960938 C 426.554688 907.75 416.632812 906.058594 413.484375 907.265625 C 412.757812 907.507812 412.03125 907.265625 412.03125 906.542969 C 412.03125 905.816406 412.03125 905.332031 412.757812 905.089844 C 416.390625 903.636719 427.28125 905.332031 429.703125 907.027344 C 430.1875 907.507812 430.425781 908.234375 429.945312 908.71875 C 429.703125 908.960938 429.460938 909.203125 428.976562 909.203125 Z M 428.976562 909.203125 " fill-opacity="1" fill-rule="nonzero"/><path fill="#cefeeb" d="M 423.410156 919.128906 C 423.167969 919.128906 422.925781 919.128906 422.683594 918.886719 C 420.988281 917.675781 411.0625 915.980469 407.917969 917.191406 C 407.191406 917.433594 406.464844 917.191406 406.464844 916.464844 C 406.222656 915.738281 406.464844 915.253906 407.191406 915.011719 C 410.820312 913.558594 421.714844 915.253906 424.132812 916.949219 C 424.617188 917.433594 424.859375 918.160156 424.375 918.644531 C 424.132812 918.886719 423.648438 919.128906 423.410156 919.128906 Z M 423.410156 919.128906 " fill-opacity="1" fill-rule="nonzero"/><path fill="#cefeeb" d="M 414.453125 929.050781 C 414.210938 929.050781 413.96875 929.050781 413.726562 928.808594 C 412.03125 927.597656 402.109375 925.902344 398.960938 927.113281 C 398.234375 927.355469 397.507812 927.113281 397.507812 926.386719 C 397.507812 925.664062 397.507812 925.179688 398.234375 924.9375 C 401.867188 923.484375 412.757812 925.179688 415.179688 926.871094 C 415.664062 927.355469 415.90625 928.082031 415.421875 928.566406 C 415.179688 928.808594 414.9375 929.050781 414.453125 929.050781 Z M 414.453125 929.050781 " fill-opacity="1" fill-rule="nonzero"/><path fill="#cefeeb" d="M 483.195312 926.871094 C 479.5625 926.871094 475.933594 925.421875 473.269531 922.515625 C 470.851562 920.09375 469.640625 916.707031 469.882812 913.320312 C 470.125 909.929688 471.816406 906.542969 474.480469 904.363281 C 480.046875 899.765625 488.519531 900.007812 493.359375 905.332031 C 495.78125 907.75 496.992188 911.140625 496.75 914.527344 C 496.507812 917.917969 494.8125 921.304688 492.152344 923.484375 C 489.488281 925.90625 486.339844 926.871094 483.195312 926.871094 Z M 483.4375 903.636719 C 480.773438 903.636719 478.113281 904.605469 475.933594 906.300781 C 473.753906 908.234375 472.300781 910.898438 472.300781 913.558594 C 472.058594 916.222656 473.027344 918.886719 474.964844 921.0625 C 478.835938 925.421875 485.855469 925.664062 490.457031 921.789062 C 492.632812 919.851562 494.085938 917.191406 494.085938 914.527344 C 494.328125 911.867188 493.359375 909.203125 491.425781 907.027344 C 489.488281 904.847656 486.582031 903.636719 483.4375 903.636719 Z M 491.425781 922.757812 Z M 491.425781 922.757812 " fill-opacity="1" fill-rule="nonzero"/><path fill="#cefeeb" d="M 485.613281 920.335938 C 485.371094 922.515625 484.40625 922.515625 483.4375 920.820312 C 482.46875 918.886719 479.804688 917.917969 477.871094 918.402344 C 475.691406 918.886719 475.207031 917.917969 476.660156 916.464844 C 478.113281 915.011719 478.59375 912.351562 477.386719 910.414062 C 476.417969 908.71875 477.144531 907.992188 478.835938 908.71875 C 480.773438 909.6875 483.679688 908.960938 484.890625 907.507812 C 486.339844 906.058594 487.308594 906.300781 487.066406 908.476562 C 486.824219 910.65625 488.035156 912.835938 489.972656 913.800781 C 491.910156 914.527344 491.910156 915.496094 489.730469 915.980469 C 488.035156 916.222656 486.097656 918.160156 485.613281 920.335938 Z M 485.613281 920.335938 " fill-opacity="1" fill-rule="nonzero"/><path fill="#0f1323" d="M 436.480469 910.65625 C 436.238281 910.65625 436.238281 910.65625 435.996094 910.65625 C 435.511719 910.414062 435.027344 909.6875 435.511719 908.960938 C 435.753906 908.476562 441.078125 896.375 443.015625 892.746094 C 445.433594 888.390625 452.9375 888.390625 453.421875 888.390625 C 454.148438 888.390625 454.632812 888.871094 454.632812 889.597656 C 454.632812 890.324219 454.148438 890.808594 453.421875 890.808594 C 451.726562 890.808594 446.644531 891.292969 445.191406 893.957031 C 443.257812 897.585938 437.6875 909.929688 437.6875 910.171875 C 437.445312 910.414062 436.964844 910.65625 436.480469 910.65625 Z M 436.480469 910.65625 " fill-opacity="1" fill-rule="nonzero"/><path fill="#cefeeb" d="M 605.1875 494.597656 C 577.59375 565.027344 559.441406 747.765625 515.386719 854.019531 L 519.746094 854.261719 C 521.679688 854.261719 522.890625 855.957031 522.648438 857.890625 L 519.984375 874.109375 C 519.746094 876.046875 518.535156 877.738281 516.597656 878.464844 C 492.390625 888.148438 461.410156 883.304688 438.171875 875.5625 C 435.511719 874.59375 433.816406 871.929688 434.542969 869.269531 L 437.6875 851.355469 C 437.929688 849.90625 439.382812 848.9375 440.835938 849.179688 L 444.464844 849.664062 L 532.574219 358.089844 L 701.523438 354.214844 C 735.410156 424.648438 708.300781 649.984375 708.300781 649.984375 C 715.078125 710.734375 702.976562 790.363281 696.199219 832.71875 C 695.957031 833.929688 701.28125 833.203125 701.28125 834.171875 C 701.523438 850.148438 698.617188 860.554688 698.617188 860.554688 C 680.707031 869.027344 649.96875 871.929688 621.164062 865.878906 C 618.984375 862.734375 618.742188 853.050781 618.742188 835.625 C 618.742188 833.6875 623.824219 833.445312 623.824219 833.445312 C 624.550781 760.835938 633.507812 600.609375 606.882812 498.710938 Z M 605.1875 494.597656 " fill-opacity="1" fill-rule="nonzero"/><path fill="#0f1323" d="M 605.1875 495.808594 C 604.703125 495.808594 603.976562 495.324219 603.976562 494.839844 L 599.136719 457.082031 L 592.84375 452.242188 C 587.761719 448.367188 584.128906 442.558594 583.160156 436.265625 L 578.320312 404.316406 C 578.320312 403.589844 578.5625 403.105469 579.289062 402.863281 C 580.015625 402.863281 580.5 403.105469 580.742188 403.832031 L 585.582031 435.78125 C 586.550781 441.589844 589.695312 446.671875 594.296875 450.0625 L 601.074219 455.144531 C 601.316406 455.386719 601.558594 455.628906 601.558594 455.871094 L 606.398438 494.113281 C 606.640625 495.082031 606.15625 495.808594 605.1875 495.808594 C 605.429688 495.808594 605.1875 495.808594 605.1875 495.808594 Z M 605.1875 495.808594 " fill-opacity="1" fill-rule="nonzero"/><path fill="#0f1323" d="M 704.914062 402.863281 C 704.914062 402.863281 704.671875 402.863281 704.671875 402.863281 C 684.097656 397.296875 673.203125 392.214844 662.796875 376.484375 C 662.554688 376 662.554688 375.273438 663.039062 374.789062 C 663.523438 374.546875 664.246094 374.546875 664.730469 375.03125 C 674.65625 390.28125 684.820312 394.878906 705.394531 400.445312 C 706.121094 400.6875 706.363281 401.414062 706.363281 401.898438 C 705.878906 402.382812 705.398438 402.863281 704.914062 402.863281 Z M 704.914062 402.863281 " fill-opacity="1" fill-rule="nonzero"/><path fill="#0f1323" d="M 534.992188 404.316406 C 534.507812 404.316406 534.023438 403.832031 533.78125 403.347656 C 533.539062 402.625 534.023438 402.140625 534.75 401.898438 C 544.675781 399.960938 558.957031 382.535156 558.957031 382.292969 C 559.441406 381.808594 560.167969 381.808594 560.652344 382.050781 C 561.132812 382.535156 561.132812 383.261719 560.894531 383.746094 C 560.167969 384.710938 545.886719 401.898438 534.992188 404.316406 Z M 534.992188 404.316406 " fill-opacity="1" fill-rule="nonzero"/><path fill="#0f1323" d="M 688.453125 833.929688 C 687.726562 833.929688 687.242188 833.203125 687.242188 832.71875 L 699.101562 673.21875 C 694.019531 603.753906 701.765625 466.035156 701.765625 464.828125 C 701.765625 464.101562 702.492188 463.617188 702.976562 463.617188 C 703.703125 463.617188 704.1875 464.101562 704.1875 464.828125 C 704.1875 466.277344 696.199219 603.753906 701.523438 673.21875 L 689.664062 832.960938 C 689.664062 833.445312 689.179688 833.929688 688.453125 833.929688 Z M 688.453125 833.929688 " fill-opacity="1" fill-rule="nonzero"/><path fill="#0f1323" d="M 658.4375 843.371094 C 648.515625 843.371094 639.074219 841.675781 629.394531 838.53125 C 628.667969 838.289062 628.425781 837.5625 628.667969 837.078125 C 628.910156 836.351562 629.636719 836.109375 630.117188 836.351562 C 649.484375 842.886719 667.878906 842.644531 691.601562 835.867188 C 692.324219 835.625 692.808594 836.109375 693.050781 836.59375 C 693.292969 837.078125 692.808594 837.804688 692.324219 838.046875 C 679.980469 841.675781 668.847656 843.371094 658.4375 843.371094 Z M 658.4375 843.371094 " fill-opacity="1" fill-rule="nonzero"/><path fill="#0f1323" d="M 476.417969 859.828125 C 464.074219 859.828125 453.179688 857.40625 443.742188 850.148438 C 443.257812 849.664062 443.015625 848.9375 443.5 848.453125 C 443.984375 847.96875 444.707031 847.726562 445.191406 848.210938 C 461.652344 860.554688 482.46875 858.132812 509.820312 853.535156 C 510.546875 853.535156 511.03125 853.777344 511.273438 854.503906 C 511.273438 855.230469 511.03125 855.714844 510.304688 855.957031 C 497.960938 858.132812 486.824219 859.828125 476.417969 859.828125 Z M 476.417969 859.828125 " fill-opacity="1" fill-rule="nonzero"/><path fill="#0f1323" d="M 496.265625 858.132812 C 496.265625 858.132812 496.023438 858.132812 496.023438 858.132812 C 495.296875 857.890625 495.054688 857.410156 495.054688 856.683594 C 495.539062 854.988281 536.6875 686.773438 535.960938 663.296875 C 534.992188 639.574219 566.460938 526.789062 567.671875 521.945312 C 567.914062 521.21875 568.636719 520.980469 569.121094 520.980469 C 569.605469 520.980469 570.089844 521.945312 570.089844 522.429688 C 569.847656 523.640625 537.65625 639.816406 538.382812 663.054688 C 539.351562 686.773438 499.167969 850.148438 497.476562 857.167969 C 497.476562 857.890625 496.992188 858.375 496.265625 858.132812 Z M 496.265625 858.132812 " fill-opacity="1" fill-rule="nonzero"/><path fill="#fc8760" d="M 543.464844 273.132812 L 546.613281 342.113281 L 658.195312 342.113281 L 687.242188 245.542969 C 704.1875 212.625 715.320312 180.917969 709.511719 159.136719 L 658.195312 135.65625 C 658.195312 135.65625 641.253906 136.140625 640.769531 91.847656 L 634.476562 93.785156 L 594.78125 107.582031 L 595.988281 121.136719 L 597.925781 133.722656 L 598.410156 136.867188 C 598.410156 137.351562 598.410156 137.835938 598.410156 138.320312 C 598.167969 139.53125 597.199219 140.5 595.988281 140.742188 L 569.121094 148.96875 C 562.828125 150.90625 557.988281 155.988281 556.535156 162.28125 C 551.9375 182.128906 564.28125 171.722656 555.324219 193.261719 C 549.03125 209.960938 543.949219 221.582031 543.464844 273.132812 Z M 543.464844 273.132812 " fill-opacity="1" fill-rule="nonzero"/><path fill="#0f1323" d="M 594.78125 107.582031 L 595.988281 121.136719 L 597.925781 133.722656 L 598.410156 136.867188 C 598.410156 137.351562 598.410156 137.835938 598.410156 138.320312 C 606.398438 139.289062 630.117188 130.089844 634.960938 102.984375 C 635.203125 102.984375 594.78125 107.582031 594.78125 107.582031 Z M 594.78125 107.582031 " fill-opacity="1" fill-rule="nonzero"/><path fill="#cefeeb" d="M 536.929688 241.667969 C 539.109375 259.820312 542.738281 360.265625 542.738281 360.265625 L 666.183594 363.171875 L 683.855469 271.199219 C 687.726562 258.128906 692.566406 245.300781 698.378906 232.714844 C 705.878906 216.253906 711.449219 200.765625 713.625 186.726562 C 714.109375 175.351562 697.652344 160.585938 681.675781 149.210938 C 666.425781 138.320312 651.417969 130.089844 651.417969 130.089844 L 611.722656 160.34375 L 598.410156 138.804688 L 598.894531 138.5625 L 563.3125 153.328125 C 563.3125 153.328125 551.453125 193.261719 547.578125 200.28125 C 543.707031 207.300781 534.75 223.515625 536.929688 241.667969 Z M 536.929688 241.667969 " fill-opacity="1" fill-rule="evenodd"/><path fill="#0f1323" d="M 563.554688 363.171875 C 562.828125 363.171875 562.34375 362.6875 562.34375 361.960938 C 562.34375 361.234375 562.828125 360.75 563.554688 360.75 L 615.113281 360.75 C 615.839844 360.75 616.320312 361.234375 616.320312 361.960938 C 616.320312 362.6875 615.839844 363.171875 615.113281 363.171875 Z M 563.554688 363.171875 " fill-opacity="1" fill-rule="nonzero"/><path fill="#76c2d9" d="M 598.410156 138.320312 C 598.410156 138.320312 588.726562 177.289062 585.097656 194.714844 C 579.53125 221.582031 574.207031 378.902344 574.207031 378.902344 L 524.828125 378.902344 C 524.828125 378.902344 538.140625 195.925781 541.285156 178.980469 C 545.160156 156.957031 562.34375 148.726562 569.847656 146.550781 Z M 598.410156 138.320312 " fill-opacity="1" fill-rule="evenodd"/><path fill="#76c2d9" d="M 652.144531 131.300781 C 653.113281 130.332031 654.566406 130.089844 656.019531 130.574219 C 665.941406 133.722656 709.269531 148.484375 715.804688 168.816406 C 723.066406 190.84375 706.363281 303.386719 716.53125 370.917969 C 717.257812 375.273438 713.867188 379.144531 709.511719 379.144531 L 600.347656 379.144531 C 600.347656 379.144531 582.917969 249.171875 610.511719 192.777344 C 630.359375 152.359375 646.820312 135.898438 652.144531 131.300781 Z M 652.144531 131.300781 " fill-opacity="1" fill-rule="evenodd"/><path fill="#0f1323" d="M 617.289062 177.53125 C 616.804688 177.53125 616.320312 177.289062 616.078125 176.804688 L 610.027344 164.21875 L 598.410156 172.445312 C 597.925781 172.929688 597.199219 172.6875 596.714844 172.207031 C 596.230469 171.722656 596.472656 170.996094 596.957031 170.511719 L 609.785156 161.3125 C 610.027344 161.070312 610.511719 161.070312 610.753906 161.070312 C 610.996094 161.070312 611.480469 161.3125 611.480469 161.796875 L 618.257812 175.59375 C 618.5 176.078125 618.257812 177.046875 617.773438 177.289062 C 617.773438 177.53125 617.53125 177.53125 617.289062 177.53125 Z M 617.289062 177.53125 " fill-opacity="1" fill-rule="nonzero"/><path fill="#0f1323" d="M 625.761719 339.210938 C 637.621094 339.695312 640.527344 324.203125 642.464844 311.375 C 644.640625 298.304688 639.558594 287.171875 631.328125 286.203125 C 623.097656 285.234375 619.953125 295.886719 617.773438 308.957031 C 614.871094 324.203125 617.53125 338.96875 625.761719 339.210938 Z M 625.761719 339.210938 " fill-opacity="1" fill-rule="nonzero"/><path fill="#fc8760" d="M 576.867188 319.121094 C 576.867188 319.121094 590.90625 318.152344 600.589844 315.730469 C 610.269531 313.3125 651.175781 322.992188 651.175781 322.992188 L 649 294.917969 C 649 294.917969 629.636719 298.546875 619.226562 294.917969 C 608.820312 291.285156 576.867188 319.121094 576.867188 319.121094 Z M 576.867188 319.121094 " fill-opacity="1" fill-rule="nonzero"/><path fill="#76c2d9" d="M 713.140625 314.765625 C 713.867188 300.242188 700.554688 287.65625 683.128906 287.171875 L 628.667969 286.445312 C 646.09375 287.171875 644.398438 340.179688 625.761719 339.453125 L 661.585938 339.9375 C 678.285156 339.210938 712.414062 329.285156 713.140625 314.765625 Z M 713.140625 314.765625 " fill-opacity="1" fill-rule="nonzero"/><path fill="#76c2d9" d="M 669.574219 339.453125 C 655.050781 339.453125 643.191406 327.835938 642.949219 313.3125 C 642.707031 298.546875 654.324219 286.445312 669.089844 286.203125 L 680.707031 285.960938 L 666.910156 183.582031 C 664.972656 169.058594 675.140625 155.503906 689.664062 153.566406 C 704.1875 151.632812 717.742188 161.796875 719.675781 176.320312 L 737.589844 308.230469 C 738.558594 315.730469 736.378906 323.476562 731.539062 329.042969 C 726.695312 334.851562 719.433594 338.242188 711.933594 338.242188 L 670.542969 338.96875 C 669.816406 339.453125 669.816406 339.453125 669.574219 339.453125 Z M 669.574219 339.453125 " fill-opacity="1" fill-rule="nonzero"/><path fill="#cefeeb" d="M 575.171875 228.839844 L 560.652344 221.582031 C 530.394531 231.019531 503.769531 252.5625 501.589844 269.019531 L 494.328125 266.355469 C 494.328125 266.355469 459.472656 247.960938 435.027344 248.445312 L 491.183594 280.878906 L 527.972656 271.683594 Z M 575.171875 228.839844 " fill-opacity="1" fill-rule="nonzero"/><path fill="#0f1323" d="M 506.1875 271.683594 L 574.691406 223.757812 L 644.398438 278.699219 L 564.039062 330.980469 L 517.082031 315.730469 L 435.027344 248.445312 L 495.054688 273.617188 Z M 506.1875 271.683594 " fill-opacity="1" fill-rule="nonzero"/><path fill="#fc8760" d="M 510.546875 313.070312 C 510.546875 313.070312 510.0625 311.859375 510.546875 306.050781 C 510.789062 300.484375 514.417969 300.242188 514.902344 291.769531 C 515.144531 288.867188 522.890625 291.769531 522.648438 300.484375 C 522.40625 309.199219 522.648438 303.386719 522.648438 303.386719 C 522.648438 303.386719 526.28125 305.566406 528.699219 301.210938 C 531.121094 296.851562 541.527344 282.574219 541.527344 282.574219 C 544.917969 277.976562 551.210938 280.636719 548.546875 286.6875 L 540.800781 303.386719 C 540.800781 303.386719 542.253906 304.839844 543.222656 303.628906 C 544.191406 302.421875 561.617188 281.847656 561.617188 281.847656 C 567.914062 275.070312 572.753906 280.636719 568.878906 286.6875 L 555.566406 306.777344 L 556.535156 307.261719 L 573.964844 287.898438 C 578.5625 282.816406 586.066406 285.960938 580.5 292.980469 L 569.121094 308.230469 C 568.878906 308.472656 569.363281 308.957031 569.605469 308.714844 L 582.917969 299.273438 C 588.003906 296.371094 592.117188 300.726562 586.792969 304.355469 C 586.792969 304.355469 560.894531 326.140625 558.714844 326.382812 C 556.535156 326.625 546.128906 330.011719 546.128906 330.011719 C 546.128906 330.011719 543.707031 346.953125 535.476562 347.4375 C 527.246094 347.921875 505.707031 344.777344 505.949219 331.949219 C 506.429688 319.121094 510.546875 313.070312 510.546875 313.070312 Z M 510.546875 313.070312 " fill-opacity="1" fill-rule="nonzero"/><path fill="#d1592e" d="M 549.03125 316.214844 C 549.03125 316.214844 548.789062 316.214844 548.789062 316.214844 C 548.546875 315.972656 548.546875 315.730469 548.546875 315.25 C 549.515625 313.796875 555.082031 307.746094 555.324219 307.503906 C 555.566406 307.261719 555.808594 307.261719 556.292969 307.503906 C 556.777344 307.746094 556.535156 307.988281 556.292969 308.472656 C 556.292969 308.472656 550.726562 314.765625 549.757812 316.214844 C 549.273438 316.214844 549.03125 316.214844 549.03125 316.214844 Z M 549.03125 316.214844 " fill-opacity="1" fill-rule="nonzero"/><path fill="#d1592e" d="M 557.503906 320.816406 C 557.261719 320.816406 557.261719 320.816406 557.019531 320.574219 C 556.777344 320.332031 556.777344 319.847656 557.019531 319.605469 L 567.429688 309.199219 C 567.671875 308.957031 568.152344 308.957031 568.394531 309.199219 C 568.636719 309.4375 568.636719 309.921875 568.394531 310.164062 L 557.988281 320.574219 C 557.988281 320.574219 557.503906 320.816406 557.503906 320.816406 Z M 557.503906 320.816406 " fill-opacity="1" fill-rule="nonzero"/><path fill="#d1592e" d="M 537.414062 309.199219 C 537.171875 309.199219 537.171875 309.199219 536.929688 308.957031 C 536.6875 308.714844 536.6875 308.472656 536.929688 307.988281 L 540.558594 303.628906 C 540.800781 303.386719 541.042969 303.386719 541.527344 303.628906 C 542.011719 303.871094 541.769531 304.113281 541.527344 304.597656 L 537.898438 308.957031 C 537.898438 309.199219 537.65625 309.199219 537.414062 309.199219 Z M 537.414062 309.199219 " fill-opacity="1" fill-rule="nonzero"/><path fill="#d1592e" d="M 514.175781 331.464844 C 513.933594 331.464844 513.691406 331.222656 513.691406 331.222656 C 513.691406 330.980469 512.242188 327.835938 512.484375 323.476562 C 512.726562 319.121094 510.789062 315.492188 510.789062 315.492188 C 510.546875 315.25 510.789062 314.765625 511.03125 314.765625 C 511.273438 314.523438 511.757812 314.765625 511.757812 315.007812 C 511.757812 315.25 513.691406 318.878906 513.449219 323.476562 C 513.207031 327.835938 514.660156 330.738281 514.660156 330.738281 C 514.660156 330.980469 514.660156 331.464844 514.175781 331.464844 Z M 514.175781 331.464844 " fill-opacity="1" fill-rule="nonzero"/><path fill="#d1592e" d="M 542.738281 337.03125 C 542.738281 337.03125 542.496094 337.03125 542.738281 337.03125 C 542.253906 336.789062 542.011719 336.546875 542.253906 336.304688 C 542.496094 335.820312 543.949219 331.707031 544.917969 330.738281 C 545.160156 330.496094 545.402344 330.496094 545.886719 330.738281 C 546.371094 330.980469 546.128906 331.464844 545.886719 331.707031 C 545.160156 332.433594 543.949219 335.335938 543.464844 336.789062 C 543.222656 336.789062 542.980469 337.03125 542.738281 337.03125 Z M 542.738281 337.03125 " fill-opacity="1" fill-rule="nonzero"/><path fill="#0f1323" d="M 683.371094 288.140625 L 643.191406 287.414062 C 642.464844 287.414062 641.980469 286.929688 641.980469 286.203125 C 641.980469 285.476562 642.464844 284.992188 643.191406 284.992188 L 681.917969 285.71875 L 668.605469 196.652344 C 668.605469 195.925781 668.847656 195.441406 669.574219 195.199219 C 670.300781 195.199219 670.785156 195.441406 671.023438 196.167969 L 684.582031 286.6875 C 684.582031 286.929688 684.582031 287.414062 684.339844 287.65625 C 684.097656 287.898438 683.613281 288.140625 683.371094 288.140625 Z M 683.371094 288.140625 " fill-opacity="1" fill-rule="nonzero"/><path fill="#0f1323" d="M 708.542969 341.386719 L 668.121094 340.421875 C 667.394531 340.421875 666.910156 339.9375 666.910156 339.210938 C 666.910156 338.484375 667.394531 338 668.121094 338 L 708.542969 338.96875 C 709.269531 338.96875 709.753906 339.453125 709.753906 340.179688 C 709.753906 340.902344 709.027344 341.386719 708.542969 341.386719 Z M 708.542969 341.386719 " fill-opacity="1" fill-rule="nonzero"/><path fill="#0f1323" d="M 544.917969 224.96875 C 544.191406 224.96875 543.707031 224.242188 543.707031 223.515625 C 546.128906 200.039062 550.96875 180.433594 550.96875 180.191406 C 551.210938 179.464844 551.695312 179.222656 552.421875 179.222656 C 553.148438 179.464844 553.390625 179.949219 553.390625 180.675781 C 553.390625 180.917969 548.546875 200.28125 546.128906 223.515625 C 546.128906 224.484375 545.644531 224.96875 544.917969 224.96875 Z M 544.917969 224.96875 " fill-opacity="1" fill-rule="nonzero"/><path fill="#0f1323" d="M 575.171875 82.167969 C 574.691406 82.167969 574.207031 81.683594 573.964844 81.199219 C 573.722656 80.472656 574.207031 79.988281 574.929688 79.746094 L 586.792969 77.085938 C 587.519531 76.84375 588.003906 77.328125 588.246094 78.054688 C 588.484375 78.78125 588.003906 79.261719 587.277344 79.503906 L 575.414062 82.167969 C 575.414062 82.167969 575.414062 82.167969 575.171875 82.167969 Z M 575.171875 82.167969 " fill-opacity="1" fill-rule="nonzero"/><path fill="#fc8760" d="M 586.066406 101.046875 C 586.308594 102.015625 586.308594 102.984375 586.550781 103.710938 C 588.96875 115.8125 593.085938 124.765625 600.105469 124.765625 C 615.113281 125.007812 626.246094 114.359375 634.476562 107.582031 C 637.863281 104.917969 638.105469 97.417969 638.832031 95.238281 L 638.832031 94.753906 L 639.316406 92.574219 L 647.546875 56.511719 C 647.546875 56.511719 632.78125 43.441406 614.871094 40.054688 C 596.957031 36.664062 585.097656 50.21875 585.097656 50.21875 C 580.5 67.644531 581.226562 76.84375 586.066406 101.046875 Z M 586.066406 101.046875 " fill-opacity="1" fill-rule="nonzero"/><path fill="#0f1323" d="M 586.550781 103.710938 C 588.96875 115.8125 593.085938 124.765625 600.105469 124.765625 C 615.113281 125.007812 626.246094 114.359375 634.476562 107.582031 C 637.863281 104.917969 638.105469 97.417969 638.832031 95.238281 L 638.832031 94.753906 L 637.378906 86.039062 L 634.960938 85.3125 C 634.960938 85.3125 628.425781 97.898438 618.015625 100.078125 C 618.015625 100.078125 609.542969 97.898438 601.316406 98.140625 C 594.539062 98.625 588.484375 102.015625 586.550781 103.710938 Z M 586.550781 103.710938 " fill-opacity="0.1" fill-rule="nonzero"/><path fill="#0f1323" d="M 634.960938 85.3125 L 633.023438 73.210938 L 630.601562 66.917969 L 624.792969 63.289062 C 621.890625 61.351562 619.953125 58.207031 619.710938 54.816406 L 619.226562 51.429688 L 617.046875 49.976562 C 615.113281 48.523438 612.449219 48.039062 610.027344 48.765625 L 595.503906 52.882812 L 589.453125 53.125 C 588.003906 53.125 586.550781 54.089844 586.066406 55.542969 L 584.128906 60.625 C 584.128906 60.625 579.53125 64.984375 580.257812 67.644531 C 580.984375 70.308594 581.949219 72.003906 581.949219 72.003906 C 581.949219 72.003906 579.046875 70.550781 577.835938 67.644531 C 576.625 64.5 578.804688 53.125 584.371094 51.914062 C 584.371094 51.914062 579.289062 42.957031 585.097656 40.78125 C 584.128906 38.117188 582.675781 36.421875 579.53125 36.179688 C 587.519531 25.289062 610.511719 29.886719 610.511719 29.886719 C 621.890625 32.550781 646.578125 31.824219 655.050781 52.882812 L 654.082031 55.785156 L 656.503906 58.691406 C 657.953125 60.382812 658.195312 62.5625 657.46875 64.5 L 647.0625 89.914062 Z M 634.960938 85.3125 " fill-opacity="1" fill-rule="nonzero"/><path fill="#fc8760" d="M 637.621094 83.621094 C 637.621094 83.621094 642.464844 60.140625 653.355469 74.90625 C 659.164062 86.28125 641.980469 94.996094 641.980469 94.996094 L 638.589844 96.933594 Z M 637.621094 83.621094 " fill-opacity="1" fill-rule="nonzero"/><path fill="#fc8760" d="M 595.988281 52.882812 C 602.765625 45.863281 609.300781 39.085938 596.472656 34.246094 C 593.8125 33.277344 590.90625 32.308594 588.246094 31.824219 C 591.148438 32.066406 594.054688 32.550781 596.957031 33.277344 C 610.511719 37.875 604.460938 46.589844 595.988281 52.882812 Z M 595.988281 52.882812 " fill-opacity="0.2" fill-rule="nonzero"/><path fill="#fc8760" d="M 641.738281 43.199219 C 637.378906 47.316406 632.539062 50.945312 626.972656 53.125 C 625.035156 53.609375 622.855469 54.332031 620.679688 53.367188 C 619.710938 52.882812 618.984375 51.671875 618.5 50.945312 C 617.046875 48.523438 615.597656 45.621094 613.902344 43.199219 C 611.964844 39.8125 609.300781 36.90625 605.671875 34.972656 C 609.300781 36.421875 612.449219 39.328125 614.628906 42.714844 C 616.320312 45.136719 617.773438 47.796875 619.226562 50.21875 C 619.710938 51.1875 620.195312 51.671875 620.921875 52.15625 C 622.375 52.882812 624.550781 52.398438 626.246094 51.914062 C 632.054688 49.976562 637.136719 46.589844 641.738281 43.199219 Z M 641.738281 43.199219 " fill-opacity="0.2" fill-rule="nonzero"/><path fill="#fc8760" d="M 646.335938 53.125 C 643.914062 57.480469 637.863281 59.175781 633.507812 56.753906 C 638.347656 57.480469 642.707031 56.269531 646.335938 53.125 Z M 646.335938 53.125 " fill-opacity="0.2" fill-rule="nonzero"/><path fill="#0f1323" d="M 586.550781 31.824219 C 579.289062 34.972656 574.207031 43.925781 582.191406 49.007812 C 572.269531 45.136719 578.078125 33.277344 586.550781 31.824219 Z M 586.550781 31.824219 " fill-opacity="1" fill-rule="nonzero"/><path fill="#d1592e" d="M 641.738281 88.21875 C 641.253906 88.21875 640.769531 87.976562 640.527344 87.492188 C 640.285156 87.007812 640.527344 86.039062 641.011719 85.796875 C 641.738281 85.3125 641.980469 85.070312 641.980469 83.863281 C 641.980469 83.621094 641.980469 83.136719 641.980469 82.894531 C 641.980469 82.410156 641.980469 82.167969 641.980469 81.683594 C 641.980469 80.472656 642.222656 79.503906 642.707031 78.539062 C 643.433594 77.570312 644.398438 76.84375 645.609375 76.84375 C 647.0625 76.84375 648.515625 77.328125 649.726562 78.539062 C 650.210938 79.019531 650.210938 79.746094 649.726562 80.230469 C 649.242188 80.714844 648.515625 80.714844 648.03125 80.230469 C 647.304688 79.746094 646.578125 79.261719 645.609375 79.261719 C 645.125 79.261719 644.640625 79.503906 644.398438 79.746094 C 644.15625 80.230469 643.914062 80.714844 644.15625 81.441406 C 644.15625 81.683594 644.15625 82.167969 644.15625 82.410156 C 644.15625 82.894531 644.15625 83.136719 644.15625 83.621094 C 644.15625 84.347656 644.15625 86.523438 641.738281 87.734375 C 641.980469 88.21875 641.980469 88.21875 641.738281 88.21875 Z M 641.738281 88.21875 " fill-opacity="1" fill-rule="nonzero"/><path fill="#0f1323" d="M 584.371094 92.332031 C 581.707031 92.332031 579.289062 91.363281 577.351562 89.671875 C 575.414062 87.734375 574.207031 85.3125 573.964844 82.410156 C 573.722656 76.601562 578.320312 71.761719 583.886719 71.519531 C 589.695312 71.277344 594.539062 75.875 594.78125 81.441406 C 595.023438 87.007812 590.421875 92.089844 584.855469 92.332031 C 584.613281 92.332031 584.613281 92.332031 584.371094 92.332031 Z M 576.382812 82.410156 C 576.382812 84.589844 577.351562 86.523438 579.046875 87.976562 C 580.5 89.429688 582.675781 90.15625 584.855469 90.15625 C 589.210938 89.914062 592.601562 86.28125 592.359375 81.925781 C 592.117188 77.570312 588.484375 74.179688 584.128906 74.179688 C 579.773438 74.179688 576.140625 78.054688 576.382812 82.410156 Z M 576.382812 82.410156 " fill-opacity="1" fill-rule="nonzero"/><path fill="#0f1323" d="M 608.820312 91.125 C 603.25 91.125 598.652344 86.765625 598.410156 81.199219 C 598.410156 78.539062 599.378906 75.875 601.074219 73.695312 C 603.007812 71.761719 605.429688 70.550781 608.335938 70.308594 C 610.996094 70.308594 613.660156 71.035156 615.839844 72.96875 C 618.015625 74.90625 618.984375 77.328125 619.226562 80.230469 C 619.46875 86.039062 614.871094 90.882812 609.300781 91.125 C 609.0625 91.125 608.820312 91.125 608.820312 91.125 Z M 608.820312 72.726562 C 608.820312 72.726562 608.578125 72.726562 608.578125 72.726562 C 606.398438 72.726562 604.460938 73.695312 603.007812 75.390625 C 601.558594 77.085938 600.832031 79.019531 600.832031 81.199219 C 600.832031 83.378906 601.800781 85.3125 603.492188 86.765625 C 604.945312 88.21875 607.125 88.945312 609.300781 88.945312 C 611.480469 88.945312 613.417969 87.976562 614.871094 86.28125 C 616.320312 84.589844 617.046875 82.652344 617.046875 80.472656 C 617.046875 78.296875 616.078125 76.359375 614.386719 74.90625 C 612.691406 73.453125 610.753906 72.726562 608.820312 72.726562 Z M 608.820312 72.726562 " fill-opacity="1" fill-rule="nonzero"/><path fill="#0f1323" d="M 616.804688 71.277344 C 616.5625 71.277344 616.320312 71.277344 616.078125 71.035156 C 609.300781 66.675781 602.523438 70.792969 602.285156 71.035156 C 601.800781 71.519531 601.074219 71.277344 600.589844 70.550781 C 600.105469 69.824219 600.347656 69.339844 600.832031 68.855469 C 601.074219 68.613281 609.0625 63.53125 617.289062 68.855469 C 617.773438 69.339844 618.015625 70.066406 617.53125 70.550781 C 617.53125 71.035156 617.289062 71.277344 616.804688 71.277344 Z M 616.804688 71.277344 " fill-opacity="1" fill-rule="nonzero"/><path fill="#0f1323" d="M 583.402344 72.003906 C 582.917969 72.003906 582.675781 71.761719 582.433594 71.519531 C 582.191406 71.035156 582.191406 70.308594 582.917969 69.824219 C 583.160156 69.582031 588.488281 66.433594 594.296875 69.582031 C 594.78125 69.824219 595.023438 70.550781 594.78125 71.277344 C 594.539062 71.761719 593.8125 72.003906 593.085938 71.761719 C 588.488281 69.097656 584.371094 71.761719 584.128906 72.003906 C 583.886719 72.003906 583.644531 72.003906 583.402344 72.003906 Z M 583.402344 72.003906 " fill-opacity="1" fill-rule="nonzero"/><path fill="#0f1323" d="M 611.496094 78.710938 C 611.507812 79.03125 611.476562 79.34375 611.40625 79.644531 C 611.332031 79.941406 611.21875 80.210938 611.070312 80.441406 C 610.921875 80.675781 610.742188 80.859375 610.542969 80.988281 C 610.339844 81.121094 610.125 81.191406 609.902344 81.199219 C 609.675781 81.207031 609.457031 81.15625 609.246094 81.042969 C 609.035156 80.925781 608.84375 80.761719 608.675781 80.539062 C 608.507812 80.320312 608.375 80.0625 608.277344 79.769531 C 608.179688 79.476562 608.121094 79.171875 608.109375 78.851562 C 608.097656 78.53125 608.128906 78.21875 608.199219 77.917969 C 608.273438 77.621094 608.386719 77.351562 608.535156 77.121094 C 608.6875 76.886719 608.863281 76.703125 609.0625 76.574219 C 609.265625 76.441406 609.480469 76.371094 609.703125 76.363281 C 609.929688 76.355469 610.148438 76.40625 610.359375 76.519531 C 610.570312 76.636719 610.761719 76.800781 610.929688 77.023438 C 611.097656 77.242188 611.230469 77.5 611.328125 77.792969 C 611.425781 78.085938 611.484375 78.390625 611.496094 78.710938 Z M 611.496094 78.710938 " fill-opacity="1" fill-rule="nonzero"/><path fill="#0f1323" d="M 590.671875 80.410156 C 590.6875 80.730469 590.65625 81.042969 590.582031 81.34375 C 590.507812 81.640625 590.394531 81.910156 590.246094 82.140625 C 590.097656 82.375 589.921875 82.558594 589.71875 82.6875 C 589.515625 82.820312 589.304688 82.890625 589.078125 82.898438 C 588.855469 82.90625 588.636719 82.855469 588.421875 82.742188 C 588.210938 82.625 588.019531 82.460938 587.851562 82.238281 C 587.683594 82.019531 587.550781 81.761719 587.453125 81.46875 C 587.355469 81.175781 587.300781 80.871094 587.289062 80.550781 C 587.273438 80.226562 587.304688 79.917969 587.378906 79.617188 C 587.453125 79.320312 587.5625 79.050781 587.714844 78.820312 C 587.863281 78.585938 588.039062 78.402344 588.242188 78.273438 C 588.445312 78.140625 588.65625 78.070312 588.882812 78.0625 C 589.105469 78.054688 589.324219 78.105469 589.535156 78.21875 C 589.75 78.332031 589.941406 78.5 590.109375 78.722656 C 590.277344 78.941406 590.410156 79.199219 590.507812 79.492188 C 590.605469 79.785156 590.660156 80.089844 590.671875 80.410156 Z M 590.671875 80.410156 " fill-opacity="1" fill-rule="nonzero"/><path fill="#d1592e" d="M 598.652344 97.898438 C 598.410156 97.898438 598.410156 97.898438 598.167969 97.898438 C 593.328125 95.964844 591.148438 93.300781 591.632812 89.429688 C 591.875 87.492188 592.601562 85.554688 593.085938 83.621094 C 593.8125 81.683594 594.296875 79.746094 594.78125 77.328125 C 594.78125 76.601562 595.503906 76.359375 596.230469 76.359375 C 596.957031 76.601562 597.441406 77.085938 597.199219 77.8125 C 596.714844 80.472656 595.988281 82.652344 595.265625 84.589844 C 594.539062 86.523438 594.054688 88.21875 593.8125 89.914062 C 593.570312 91.847656 594.054688 94.027344 598.652344 95.722656 C 599.378906 95.964844 599.621094 96.691406 599.378906 97.417969 C 599.621094 97.65625 599.136719 97.898438 598.652344 97.898438 Z M 598.652344 97.898438 " fill-opacity="1" fill-rule="nonzero"/><path fill="#d1592e" d="M 601.074219 108.792969 C 599.863281 108.792969 598.410156 108.550781 596.714844 108.308594 C 595.988281 108.066406 595.503906 107.582031 595.746094 106.855469 C 595.746094 106.128906 596.472656 105.886719 597.199219 105.886719 C 604.945312 107.339844 607.851562 104.433594 610.027344 102.257812 C 610.511719 101.773438 611.238281 101.773438 611.722656 102.257812 C 612.207031 102.742188 612.207031 103.46875 611.722656 103.949219 C 609.785156 106.128906 606.882812 108.792969 601.074219 108.792969 Z M 601.074219 108.792969 " fill-opacity="1" fill-rule="nonzero"/><path fill="#0f1323" d="M 616.320312 76.84375 C 615.839844 76.84375 615.355469 76.359375 615.113281 75.875 C 614.871094 75.148438 615.355469 74.664062 616.078125 74.421875 L 641.011719 68.613281 C 641.738281 68.371094 642.222656 68.855469 642.464844 69.582031 C 642.707031 70.308594 642.222656 70.792969 641.496094 71.035156 L 616.5625 76.601562 C 616.5625 76.601562 616.320312 76.601562 616.320312 76.84375 Z M 616.320312 76.84375 " fill-opacity="1" fill-rule="nonzero"/><path fill="#0f1323" d="M 593.085938 80.230469 C 592.601562 80.230469 592.359375 79.988281 592.117188 79.746094 C 591.632812 79.261719 591.875 78.539062 592.359375 78.054688 C 595.265625 76.117188 597.441406 75.875 600.589844 77.085938 C 601.074219 77.328125 601.558594 78.054688 601.316406 78.78125 C 601.074219 79.261719 600.347656 79.746094 599.621094 79.503906 C 597.441406 78.539062 596.230469 78.539062 593.8125 80.230469 C 593.570312 80.230469 593.328125 80.230469 593.085938 80.230469 Z M 593.085938 80.230469 " fill-opacity="1" fill-rule="nonzero"/><path fill="#fc8760" d="M 174.582031 824.976562 L 174.582031 900.007812 L 235.335938 898.554688 L 227.347656 835.625 Z M 174.582031 824.976562 " fill-opacity="1" fill-rule="evenodd"/><path fill="#fc8760" d="M 86.957031 841.675781 L 79.214844 902.425781 L 130.285156 900.972656 L 130.285156 837.078125 Z M 86.957031 841.675781 " fill-opacity="1" fill-rule="evenodd"/><path fill="#d1592e" d="M 127.140625 885 C 127.140625 884.757812 127.140625 884.757812 127.140625 884.515625 C 127.382812 874.835938 122.054688 868.542969 107.53125 867.332031 C 93.011719 866.121094 87.925781 877.496094 87.925781 881.613281 C 87.925781 884.757812 93.011719 885.96875 100.511719 885.96875 C 107.53125 885.96875 113.828125 884.757812 120.605469 884.757812 C 122.78125 884.515625 124.71875 884.757812 127.140625 885 Z M 127.140625 885 " fill-opacity="1" fill-rule="nonzero"/><path fill="#d1592e" d="M 130.285156 876.285156 C 129.558594 874.109375 125.203125 872.414062 123.023438 873.140625 C 118.183594 874.59375 110.4375 877.253906 107.53125 877.253906 C 101.722656 877.253906 93.011719 874.59375 88.167969 873.625 C 85.265625 873.140625 81.148438 877.496094 81.148438 879.675781 C 81.148438 879.675781 81.148438 884.03125 75.824219 906.058594 C 74.613281 911.382812 52.105469 937.039062 62.753906 952.527344 C 65.902344 957.128906 116.003906 955.433594 137.0625 954.707031 C 142.144531 954.464844 146.746094 952.285156 149.40625 948.65625 C 151.101562 946.234375 152.554688 943.574219 151.585938 941.152344 C 150.859375 939.457031 152.070312 928.324219 142.871094 914.527344 C 135.125 902.910156 132.949219 885 130.285156 876.285156 Z M 130.285156 876.285156 " fill-opacity="1" fill-rule="nonzero"/><path fill="#0f1323" d="M 115.277344 908.960938 C 114.308594 908.960938 113.585938 908.960938 113.34375 908.960938 C 112.859375 908.960938 112.375 908.476562 112.375 907.992188 C 112.132812 905.332031 112.375 901.214844 112.617188 896.617188 C 112.859375 890.808594 113.101562 884.515625 112.617188 880.402344 C 112.617188 879.675781 112.375 878.222656 123.507812 875.320312 C 123.992188 875.078125 124.71875 875.5625 124.71875 876.042969 C 124.71875 876.527344 124.476562 877.253906 123.992188 877.253906 C 120.121094 878.222656 115.761719 879.675781 114.792969 880.402344 C 115.277344 884.515625 115.035156 890.566406 114.550781 896.617188 C 114.308594 900.492188 114.308594 904.121094 114.308594 906.785156 C 118.667969 906.785156 127.867188 906.542969 131.011719 904.605469 C 131.496094 904.363281 132.222656 904.605469 132.464844 905.089844 C 132.707031 905.574219 132.464844 906.300781 131.980469 906.542969 C 128.347656 908.71875 119.152344 908.960938 115.277344 908.960938 Z M 115.277344 908.960938 " fill-opacity="0.2" fill-rule="nonzero"/><path fill="#0f1323" d="M 97.609375 908.960938 C 97.367188 908.960938 97.367188 908.960938 97.125 908.960938 C 96.640625 908.960938 93.253906 908.476562 90.347656 907.992188 C 79.457031 906.542969 79.214844 906.542969 78.972656 906.058594 C 78.488281 905.574219 78.488281 904.847656 78.972656 904.605469 C 79.214844 904.363281 79.699219 904.121094 80.179688 904.363281 C 81.148438 904.605469 86.71875 905.332031 90.589844 905.816406 C 93.976562 906.300781 95.914062 906.542969 96.882812 906.785156 C 98.09375 904.121094 98.335938 901.941406 98.578125 898.796875 C 99.0625 894.683594 99.546875 889.597656 102.207031 881.128906 C 101.480469 880.402344 98.820312 879.191406 97.125 878.464844 C 94.945312 877.496094 93.734375 876.769531 93.011719 876.285156 C 92.527344 876.046875 92.527344 875.320312 92.769531 874.835938 C 93.253906 874.351562 93.734375 874.351562 94.21875 874.59375 C 94.703125 874.835938 96.398438 875.804688 97.851562 876.527344 C 102.691406 878.707031 104.628906 879.675781 104.144531 881.371094 C 101.238281 889.839844 100.996094 894.921875 100.511719 899.039062 C 100.273438 902.425781 100.03125 905.332031 98.335938 908.476562 C 98.578125 908.71875 98.09375 908.960938 97.609375 908.960938 Z M 102.449219 881.128906 Z M 102.449219 881.128906 " fill-opacity="0.2" fill-rule="nonzero"/><path fill="#0f1323" d="M 123.75 886.695312 C 114.550781 882.820312 103.175781 880.886719 94.460938 886.695312 C 93.496094 887.421875 92.285156 885.726562 93.253906 885 C 97.609375 881.371094 103.417969 880.160156 108.984375 880.160156 C 114.550781 880.402344 119.878906 881.855469 124.71875 884.515625 C 125.203125 884.757812 125.445312 885.484375 125.203125 885.96875 C 124.960938 886.695312 124.234375 886.9375 123.75 886.695312 Z M 123.75 886.695312 " fill-opacity="1" fill-rule="nonzero"/><path fill="#0f1323" d="M 124.476562 892.746094 C 114.308594 890.324219 103.175781 889.839844 93.496094 894.441406 C 92.285156 894.921875 91.316406 893.230469 92.527344 892.503906 C 97.367188 889.597656 102.933594 888.390625 108.5 888.148438 C 114.070312 887.90625 119.636719 888.632812 124.960938 890.566406 C 125.445312 890.808594 125.929688 891.535156 125.6875 892.019531 C 125.6875 892.746094 125.203125 892.988281 124.476562 892.746094 Z M 124.476562 892.746094 " fill-opacity="1" fill-rule="nonzero"/><path fill="#0f1323" d="M 126.65625 901.457031 C 115.277344 899.039062 102.691406 898.3125 91.558594 902.183594 C 90.347656 902.667969 89.621094 900.972656 90.589844 900.25 C 96.15625 897.34375 102.691406 896.859375 108.742188 896.617188 C 114.792969 896.617188 121.089844 897.101562 127.140625 899.039062 C 127.625 899.28125 128.105469 899.765625 127.867188 900.492188 C 127.867188 901.214844 127.140625 901.457031 126.65625 901.457031 Z M 126.65625 901.457031 " fill-opacity="1" fill-rule="nonzero"/><path fill="#0f1323" d="M 148.441406 943.574219 L 62.269531 943.574219 C 61.542969 943.574219 61.058594 943.089844 61.058594 942.363281 C 61.058594 941.636719 61.542969 941.152344 62.269531 941.152344 L 148.441406 941.152344 C 149.164062 941.152344 149.648438 941.636719 149.648438 942.363281 C 149.648438 943.089844 149.164062 943.574219 148.441406 943.574219 Z M 148.441406 943.574219 " fill-opacity="1" fill-rule="nonzero"/><path fill="#0f1323" d="M 64.933594 935.828125 C 64.691406 935.828125 64.449219 935.828125 64.207031 935.585938 C 63.480469 935.101562 63.238281 934.132812 63.722656 933.40625 C 64.207031 932.4375 77.277344 912.59375 106.082031 912.59375 C 134.882812 912.59375 144.808594 932.921875 145.292969 933.648438 C 145.535156 934.375 145.292969 935.34375 144.566406 935.828125 C 143.839844 936.070312 142.871094 935.828125 142.386719 935.101562 C 142.144531 934.375 132.949219 915.738281 106.082031 915.738281 C 79.214844 915.738281 66.625 935.101562 66.382812 935.101562 C 65.902344 935.585938 65.417969 935.828125 64.933594 935.828125 Z M 64.933594 935.828125 " fill-opacity="0.2" fill-rule="nonzero"/><path fill="#d1592e" d="M 335.785156 938.25 L 337.964844 942.605469 C 337.964844 947.445312 334.574219 951.316406 330.460938 951.316406 L 297.058594 951.316406 L 296.332031 949.625 L 293.910156 949.625 L 293.910156 951.316406 L 291.976562 951.316406 L 291.976562 949.382812 L 289.796875 949.382812 L 289.796875 951.316406 L 287.859375 951.316406 L 287.859375 949.382812 L 285.925781 949.382812 L 285.441406 951.316406 L 171.675781 951.316406 C 166.835938 951.316406 164.414062 948.171875 164.171875 942.363281 C 163.929688 938.730469 165.625 938.007812 167.078125 936.554688 C 167.078125 936.554688 160.785156 910.65625 167.5625 891.050781 C 169.015625 886.453125 174.582031 884.515625 178.695312 886.9375 C 189.347656 893.714844 210.644531 902.910156 225.410156 881.128906 L 229.769531 878.222656 C 230.011719 872.65625 231.703125 869.992188 236.546875 871.929688 C 236.546875 871.929688 273.820312 906.785156 303.835938 912.109375 C 312.066406 913.558594 317.875 916.464844 326.832031 922.03125 C 332.15625 925.90625 337.964844 929.050781 335.785156 938.25 Z M 335.785156 938.25 " fill-opacity="1" fill-rule="nonzero"/><path fill="#0f1323" d="M 335.058594 938.730469 L 170.222656 937.523438 C 169.738281 937.523438 169.015625 937.039062 169.015625 936.3125 C 169.015625 935.585938 169.496094 935.101562 170.222656 935.101562 L 335.058594 936.3125 C 335.542969 936.3125 336.269531 936.796875 336.269531 937.523438 C 336.269531 938.25 335.542969 938.730469 335.058594 938.730469 Z M 335.058594 938.730469 " fill-opacity="1" fill-rule="nonzero"/><path fill="#0f1323" d="M 239.207031 886.695312 C 238.964844 886.695312 238.480469 886.453125 238.238281 886.210938 C 237.996094 885.726562 237.996094 885 238.480469 884.757812 C 238.480469 884.757812 242.113281 882.097656 242.597656 878.464844 C 242.597656 877.980469 243.324219 877.496094 243.808594 877.496094 C 244.292969 877.496094 244.777344 877.980469 244.777344 878.707031 C 244.292969 883.546875 239.933594 886.453125 239.691406 886.695312 C 239.691406 886.695312 239.449219 886.695312 239.207031 886.695312 Z M 239.207031 886.695312 " fill-opacity="1" fill-rule="nonzero"/><path fill="#0f1323" d="M 248.164062 893.714844 C 247.921875 893.714844 247.4375 893.472656 247.195312 893.230469 C 246.953125 892.746094 246.953125 892.019531 247.4375 891.777344 C 247.4375 891.777344 251.070312 889.113281 251.554688 885.484375 C 251.554688 885 252.277344 884.515625 252.761719 884.515625 C 253.246094 884.515625 253.730469 885 253.730469 885.726562 C 253.246094 890.566406 248.890625 893.472656 248.648438 893.714844 C 248.648438 893.472656 248.40625 893.714844 248.164062 893.714844 Z M 248.164062 893.714844 " fill-opacity="1" fill-rule="nonzero"/><path fill="#0f1323" d="M 256.878906 900.007812 C 256.636719 900.007812 256.152344 899.765625 255.910156 899.523438 C 255.667969 899.039062 255.667969 898.3125 256.152344 898.070312 C 256.152344 898.070312 259.78125 895.40625 260.265625 891.777344 C 260.265625 891.292969 260.992188 890.808594 261.476562 890.808594 C 261.960938 890.808594 262.445312 891.292969 262.445312 892.019531 C 261.960938 896.859375 257.605469 899.765625 257.363281 900.007812 C 257.363281 899.765625 257.121094 900.007812 256.878906 900.007812 Z M 256.878906 900.007812 " fill-opacity="1" fill-rule="nonzero"/><path fill="#0f1323" d="M 227.347656 936.554688 C 227.347656 936.554688 227.105469 936.554688 227.105469 936.554688 C 226.621094 936.3125 226.136719 935.828125 226.378906 935.101562 C 226.621094 934.375 230.253906 919.371094 238.722656 915.496094 C 241.628906 914.042969 244.777344 914.285156 247.921875 915.738281 C 253.488281 918.402344 258.570312 919.128906 261.960938 917.675781 C 263.65625 916.949219 264.625 915.738281 265.351562 913.800781 C 268.738281 902.910156 243.082031 887.179688 232.671875 882.097656 C 232.1875 881.855469 231.945312 881.128906 232.1875 880.644531 C 232.429688 880.160156 233.15625 879.917969 233.640625 880.160156 C 235.09375 880.886719 271.886719 899.765625 267.285156 914.527344 C 266.558594 916.949219 264.867188 918.886719 262.6875 919.613281 C 258.8125 921.304688 253.003906 920.578125 246.953125 917.675781 C 244.292969 916.464844 241.871094 916.464844 239.449219 917.433594 C 231.945312 921.0625 228.316406 935.585938 228.316406 935.585938 C 228.316406 936.3125 227.832031 936.554688 227.347656 936.554688 Z M 227.347656 936.554688 " fill-opacity="0.2" fill-rule="nonzero"/><path fill="#76c2d9" d="M 255.910156 657.972656 C 255.910156 671.039062 255.910156 686.53125 255.667969 698.632812 C 255.425781 711.21875 251.792969 736.390625 248.164062 753.574219 C 246.953125 775.117188 246.46875 796.171875 248.164062 804.886719 C 252.277344 825.703125 233.15625 834.171875 233.15625 834.171875 L 233.15625 850.632812 C 233.15625 854.746094 229.769531 858.617188 225.167969 859.585938 C 214.519531 861.523438 195.882812 864.425781 181.117188 863.460938 C 175.550781 862.976562 171.675781 859.101562 171.917969 854.019531 L 172.160156 837.320312 C 151.34375 822.070312 166.109375 785.039062 166.109375 785.039062 L 175.066406 680.722656 C 175.550781 659.90625 175.792969 642.964844 176.035156 636.429688 C 176.515625 620.457031 184.019531 581.972656 184.019531 565.996094 C 183.777344 572.046875 167.078125 621.90625 166.59375 627.957031 C 160.300781 691.855469 163.445312 685.320312 156.425781 745.105469 C 154.734375 768.097656 153.28125 797.867188 154.734375 809.96875 C 157.152344 829.574219 140.453125 836.835938 138.03125 838.046875 C 138.03125 838.046875 137.789062 838.046875 137.789062 838.046875 L 136.820312 853.777344 L 136.820312 854.261719 C 136.578125 858.375 132.707031 862.007812 128.105469 862.492188 C 117.457031 863.703125 98.578125 865.394531 83.8125 863.21875 C 78.246094 862.492188 74.855469 858.132812 75.339844 853.292969 L 77.035156 836.59375 C 57.429688 819.894531 74.855469 784.070312 74.855469 784.070312 L 76.066406 733.726562 C 72.195312 701.539062 73.160156 673.703125 73.160156 663.78125 C 73.160156 645.386719 78.246094 577.613281 78.246094 547.84375 C 78.246094 522.429688 82.84375 469.425781 88.167969 429.003906 C 89.136719 420.050781 100.03125 370.433594 102.449219 356.636719 C 103.660156 349.617188 104.144531 345.019531 104.386719 342.597656 C 104.386719 339.210938 132.707031 348.40625 269.707031 350.101562 C 271.644531 354.699219 273.09375 393.183594 273.09375 406.011719 C 272.609375 475.71875 264.625 562.609375 255.910156 657.972656 Z M 255.910156 657.972656 " fill-opacity="1" fill-rule="nonzero"/><path fill="#0f1323" d="M 184.261719 567.207031 C 184.261719 567.207031 184.019531 567.207031 184.019531 567.207031 C 183.292969 566.964844 183.050781 566.238281 183.292969 565.753906 C 188.621094 548.328125 191.523438 523.398438 193.945312 503.308594 C 196.609375 480.074219 198.542969 466.761719 201.933594 464.101562 C 213.550781 455.386719 219.601562 428.277344 219.601562 420.535156 C 219.601562 419.808594 220.085938 419.324219 220.8125 419.324219 C 221.539062 419.324219 222.023438 419.808594 222.023438 420.535156 C 222.023438 427.792969 216.214844 456.355469 203.386719 466.035156 C 200.722656 468.214844 198.542969 485.398438 196.367188 503.550781 C 193.945312 523.640625 191.039062 548.570312 185.714844 566.238281 C 185.230469 566.722656 184.746094 567.207031 184.261719 567.207031 Z M 184.261719 567.207031 " fill-opacity="1" fill-rule="nonzero"/><path fill="#0f1323" d="M 233.398438 844.097656 C 214.519531 844.339844 192.734375 849.179688 172.402344 837.078125 C 172.402344 837.078125 215.246094 842.160156 233.15625 834.171875 Z M 233.398438 844.097656 " fill-opacity="1" fill-rule="nonzero"/><path fill="#0f1323" d="M 137.789062 837.804688 L 136.820312 853.535156 C 111.890625 851.355469 90.589844 849.664062 76.792969 836.351562 C 76.792969 836.351562 118.667969 843.855469 137.789062 837.804688 Z M 137.789062 837.804688 " fill-opacity="1" fill-rule="nonzero"/><path fill="#fc8760" d="M 264.867188 322.507812 L 282.535156 286.203125 L 261.71875 277.007812 Z M 264.867188 322.507812 " fill-opacity="1" fill-rule="nonzero"/><path fill="#fc8760" d="M 111.164062 273.132812 L 140.210938 369.707031 L 252.035156 369.707031 L 255.183594 300.726562 C 271.886719 287.414062 270.433594 248.445312 259.78125 236.34375 C 244.292969 218.917969 246.710938 209.71875 242.113281 189.875 C 240.660156 183.582031 235.820312 178.496094 229.527344 176.5625 L 202.660156 168.332031 C 200.964844 167.847656 199.996094 166.152344 200.238281 164.460938 L 200.722656 161.3125 L 202.660156 148.726562 L 203.867188 135.171875 L 163.929688 121.378906 L 157.636719 119.441406 C 157.152344 163.734375 140.210938 163.25 140.210938 163.25 L 106.324219 191.808594 C 100.511719 213.351562 94.21875 240.21875 111.164062 273.132812 Z M 111.164062 273.132812 " fill-opacity="1" fill-rule="nonzero"/><path fill="#0f1323" d="M 172.160156 124.28125 C 174.097656 144.128906 196.367188 158.894531 200.722656 161.554688 L 202.660156 148.96875 L 203.867188 135.414062 Z M 172.160156 124.28125 " fill-opacity="1" fill-rule="nonzero"/><path fill="#cefeeb" d="M 263.171875 397.296875 C 242.355469 404.316406 195.882812 416.660156 104.628906 392.214844 C 100.753906 391.246094 93.496094 390.277344 93.496094 386.40625 L 98.578125 366.558594 L 98.820312 351.554688 L 99.789062 303.386719 C 100.03125 291.285156 98.335938 279.183594 94.703125 267.566406 C 87.683594 243.847656 91.558594 200.523438 103.417969 185.515625 C 118.910156 166.152344 135.367188 162.765625 140.210938 162.039062 C 140.695312 162.039062 140.9375 162.039062 141.421875 162.28125 C 207.5 217.707031 217.90625 178.257812 219.117188 173.171875 C 219.117188 172.929688 219.359375 172.6875 219.601562 172.929688 L 235.335938 178.015625 C 237.996094 178.738281 240.417969 180.191406 242.355469 182.371094 C 252.035156 193.503906 263.171875 197.375 265.832031 267.566406 C 267.285156 303.386719 269.949219 359.78125 272.609375 382.535156 C 273.335938 389.070312 269.464844 395.121094 263.171875 397.296875 Z M 263.171875 397.296875 " fill-opacity="1" fill-rule="nonzero"/><path fill="#fc8760" d="M 315.210938 242.878906 C 317.632812 243.605469 318.359375 245.542969 318.359375 247.476562 C 318.359375 257.886719 307.707031 262 296.816406 265.871094 C 296.574219 265.390625 296.332031 264.90625 296.332031 264.179688 C 296.332031 259.339844 302.382812 255.222656 306.5 251.109375 C 308.917969 248.445312 311.339844 244.332031 315.210938 242.878906 Z M 315.210938 242.878906 " fill-opacity="1" fill-rule="nonzero"/><path fill="#0f1323" d="M 353.214844 200.523438 L 346.4375 164.945312 L 328.523438 176.804688 L 344.5 197.136719 Z M 353.214844 200.523438 " fill-opacity="1" fill-rule="nonzero"/><path fill="#cefeeb" d="M 249.859375 249.171875 L 249.859375 241.910156 L 309.160156 170.996094 L 317.390625 174.382812 C 317.390625 174.382812 330.21875 161.070312 331.429688 159.136719 L 344.742188 166.152344 L 350.308594 198.585938 Z M 249.859375 249.171875 " fill-opacity="1" fill-rule="nonzero"/><path fill="#fc8760" d="M 249.859375 275.070312 C 249.859375 275.070312 254.214844 263.453125 256.152344 260.789062 C 258.089844 258.128906 260.265625 250.382812 260.265625 250.382812 L 278.421875 254.980469 Z M 249.859375 275.070312 " fill-opacity="1" fill-rule="nonzero"/><path fill="#0f1323" d="M 249.859375 249.171875 L 313.035156 185.515625 L 353.214844 200.523438 L 294.878906 262.726562 Z M 249.859375 249.171875 " fill-opacity="1" fill-rule="nonzero"/><path fill="#0f1323" d="M 317.632812 174.140625 C 327.554688 179.222656 336.269531 183.582031 343.53125 190.601562 C 337.964844 178.257812 332.15625 167.847656 331.671875 158.894531 Z M 317.632812 174.140625 " fill-opacity="0.2" fill-rule="nonzero"/><path fill="#fc8760" d="M 268.496094 256.917969 C 268.496094 256.917969 281.082031 250.867188 284.472656 249.171875 C 287.859375 247.476562 309.886719 230.777344 309.886719 230.777344 C 316.90625 226.179688 320.535156 230.050781 314.484375 235.375 L 293.183594 254.253906 L 314.484375 237.796875 C 318.84375 234.410156 322.957031 237.796875 316.421875 244.089844 L 298.996094 261.03125 C 298.996094 261.03125 307.222656 257.402344 309.644531 255.464844 C 312.066406 253.527344 315.695312 246.996094 315.695312 246.996094 C 319.328125 245.300781 320.777344 251.351562 315.9375 255.464844 L 309.644531 262.484375 C 312.550781 260.546875 312.792969 264.179688 312.308594 266.113281 C 311.582031 269.503906 309.160156 272.40625 306.257812 274.101562 C 301.65625 276.765625 277.210938 289.351562 272.851562 289.351562 C 268.496094 289.351562 225.167969 315.25 225.167969 315.25 L 211.855469 285.234375 L 247.921875 270.472656 C 247.921875 270.714844 264.867188 257.160156 268.496094 256.917969 Z M 268.496094 256.917969 " fill-opacity="1" fill-rule="nonzero"/><path fill="#0f1323" d="M 232.429688 322.507812 L 98.820312 366.558594 L 99.0625 351.554688 Z M 232.429688 322.507812 " fill-opacity="1" fill-rule="nonzero"/><path fill="#cefeeb" d="M 100.996094 352.039062 C 94.21875 352.039062 87.683594 349.375 82.601562 344.777344 C 76.066406 338.726562 73.160156 329.769531 74.613281 320.816406 L 91.316406 224.242188 C 93.734375 209.71875 107.53125 200.039062 122.054688 202.460938 C 136.578125 204.878906 146.261719 218.675781 143.839844 233.199219 L 133.917969 290.320312 L 223.960938 277.007812 C 238.238281 273.617188 246.710938 319.121094 232.429688 322.265625 L 106.808594 351.3125 C 104.871094 351.796875 102.933594 352.039062 100.996094 352.039062 Z M 100.996094 352.039062 " fill-opacity="1" fill-rule="nonzero"/><path fill="#d1592e" d="M 288.585938 258.855469 C 288.34375 258.855469 288.34375 258.855469 288.101562 258.613281 C 287.859375 258.371094 287.859375 257.886719 288.101562 257.644531 L 293.910156 253.046875 C 294.152344 252.804688 294.636719 252.804688 294.878906 253.046875 C 295.121094 253.285156 295.121094 253.769531 294.878906 254.011719 L 289.070312 258.613281 C 288.828125 258.855469 288.585938 258.855469 288.585938 258.855469 Z M 288.585938 258.855469 " fill-opacity="1" fill-rule="nonzero"/><path fill="#d1592e" d="M 292.945312 267.082031 C 292.703125 267.082031 292.703125 267.082031 292.460938 266.839844 C 292.21875 266.597656 292.21875 266.113281 292.460938 265.871094 L 315.695312 244.332031 C 315.9375 244.089844 316.421875 244.089844 316.664062 244.332031 C 316.90625 244.574219 316.90625 245.058594 316.664062 245.300781 L 293.425781 266.839844 C 293.425781 266.839844 293.183594 267.082031 292.945312 267.082031 Z M 292.945312 267.082031 " fill-opacity="1" fill-rule="nonzero"/><path fill="#d1592e" d="M 297.542969 273.132812 C 297.300781 273.132812 297.058594 272.890625 297.058594 272.890625 C 296.816406 272.648438 297.058594 272.164062 297.300781 272.164062 C 297.300781 272.164062 301.898438 269.503906 304.078125 267.324219 C 306.5 264.90625 309.160156 262.726562 309.402344 262.484375 C 309.644531 262.242188 310.128906 262.242188 310.371094 262.484375 C 310.613281 262.726562 310.613281 263.210938 310.371094 263.453125 C 310.371094 263.453125 307.464844 265.632812 305.289062 268.050781 C 302.867188 270.472656 298.269531 273.132812 298.269531 273.132812 C 297.785156 273.132812 297.542969 273.132812 297.542969 273.132812 Z M 297.542969 273.132812 " fill-opacity="1" fill-rule="nonzero"/><path fill="#0f1323" d="M 133.917969 292.011719 C 133.675781 292.011719 133.191406 291.769531 132.949219 291.769531 C 132.707031 291.527344 132.464844 291.042969 132.707031 290.800781 L 143.355469 231.019531 C 143.597656 230.292969 144.082031 230.050781 144.808594 230.050781 C 145.535156 230.292969 145.777344 230.777344 145.777344 231.503906 L 135.367188 289.59375 L 226.621094 276.039062 C 227.347656 276.039062 227.832031 276.28125 228.074219 277.007812 C 228.074219 277.734375 227.832031 278.214844 227.105469 278.457031 L 133.917969 292.011719 C 134.160156 292.011719 133.917969 292.011719 133.917969 292.011719 Z M 133.917969 292.011719 " fill-opacity="1" fill-rule="nonzero"/><path fill="#0f1323" d="M 249.859375 230.050781 C 249.132812 230.050781 248.648438 229.566406 248.648438 228.839844 C 248.648438 221.339844 242.839844 202.703125 242.839844 202.460938 C 242.597656 201.734375 243.082031 201.25 243.566406 201.007812 C 244.292969 200.765625 244.777344 201.25 245.015625 201.734375 C 245.257812 202.460938 251.070312 221.097656 251.070312 228.839844 C 251.3125 229.566406 250.585938 230.050781 249.859375 230.050781 Z M 249.859375 230.050781 " fill-opacity="1" fill-rule="nonzero"/><path fill="#d1592e" d="M 267.042969 292.738281 C 266.800781 292.738281 266.558594 292.496094 266.558594 292.253906 C 266.316406 292.011719 266.558594 291.527344 266.800781 291.527344 L 272.609375 289.109375 L 280.597656 286.445312 C 280.839844 286.445312 281.324219 286.445312 281.324219 286.6875 C 281.324219 286.929688 281.324219 287.414062 281.082031 287.414062 L 273.335938 290.078125 L 267.527344 292.496094 C 267.285156 292.738281 267.042969 292.738281 267.042969 292.738281 Z M 267.042969 292.738281 " fill-opacity="1" fill-rule="nonzero"/><path fill="#0f1323" d="M 203.386719 69.097656 C 212.339844 75.390625 220.328125 73.453125 230.253906 86.28125 C 236.0625 94.027344 231.460938 98.867188 231.460938 104.675781 C 231.460938 114.117188 242.113281 130.574219 239.933594 141.222656 C 236.546875 159.136719 198.058594 156.957031 201.449219 145.097656 C 205.320312 131.542969 185.957031 145.582031 185.957031 129.363281 C 185.957031 107.824219 202.175781 90.398438 203.386719 69.097656 Z M 203.386719 69.097656 " fill-opacity="1" fill-rule="nonzero"/><path fill="#fc8760" d="M 209.195312 74.664062 C 220.8125 66.195312 229.769531 140.257812 207.984375 148.242188 C 174.097656 160.585938 162.238281 114.84375 162.238281 114.84375 C 162.238281 114.84375 179.90625 56.511719 209.195312 74.664062 Z M 209.195312 74.664062 " fill-opacity="1" fill-rule="nonzero"/><path fill="#0f1323" d="M 221.296875 75.390625 C 218.148438 61.835938 210.164062 49.007812 193.21875 52.15625 C 169.253906 49.492188 155.941406 56.511719 148.921875 66.195312 C 142.628906 71.035156 135.367188 77.570312 131.738281 82.652344 C 128.347656 87.734375 132.222656 95.480469 128.589844 100.320312 C 124.960938 105.160156 115.277344 109.761719 115.277344 116.292969 C 115.277344 118.714844 116.003906 127.1875 117.941406 131.785156 C 111.890625 144.613281 117.214844 151.875 124.476562 155.019531 C 137.0625 160.34375 155.941406 163.734375 166.109375 159.378906 C 176.273438 155.019531 159.089844 112.421875 166.59375 112.421875 C 174.582031 112.179688 179.664062 107.582031 184.261719 101.289062 C 186.199219 99.59375 187.410156 97.417969 188.136719 95.480469 C 189.589844 93.300781 191.039062 90.882812 192.492188 88.703125 C 197.089844 88.460938 210.886719 84.347656 209.195312 74.664062 C 210.40625 72.246094 225.652344 94.027344 221.296875 75.390625 Z M 221.296875 75.390625 " fill-opacity="1" fill-rule="nonzero"/><path fill="#fc8760" d="M 169.015625 111.9375 C 169.015625 111.9375 167.804688 103.710938 160.542969 104.917969 C 153.28125 106.371094 153.523438 124.765625 165.140625 126.460938 C 176.757812 128.15625 169.015625 111.9375 169.015625 111.9375 Z M 169.015625 111.9375 " fill-opacity="1" fill-rule="nonzero"/><path fill="#0f1323" d="M 189.832031 103.949219 C 189.589844 103.949219 189.105469 103.710938 188.863281 103.46875 C 188.378906 102.984375 188.621094 102.257812 189.105469 101.773438 C 195.882812 96.691406 203.144531 100.5625 203.386719 100.804688 C 203.867188 101.046875 204.109375 101.773438 203.867188 102.5 C 203.625 103.226562 202.902344 103.226562 202.175781 102.984375 C 201.933594 102.742188 195.882812 99.59375 190.3125 103.710938 C 190.3125 103.949219 190.070312 103.949219 189.832031 103.949219 Z M 189.832031 103.949219 " fill-opacity="1" fill-rule="nonzero"/><path fill="#0f1323" d="M 210.40625 103.226562 C 209.921875 103.226562 209.679688 102.984375 209.4375 102.742188 C 209.195312 102.257812 209.195312 101.53125 209.679688 101.046875 C 214.761719 97.898438 219.601562 100.5625 219.84375 100.5625 C 220.328125 100.804688 220.570312 101.53125 220.328125 102.257812 C 220.085938 102.984375 219.359375 102.984375 218.632812 102.742188 C 218.390625 102.742188 214.761719 100.804688 211.128906 103.226562 C 210.886719 103.226562 210.644531 103.226562 210.40625 103.226562 Z M 210.40625 103.226562 " fill-opacity="1" fill-rule="nonzero"/><path fill="#0f1323" d="M 197.570312 105.203125 C 197.765625 105.207031 197.949219 105.257812 198.125 105.359375 C 198.300781 105.460938 198.457031 105.601562 198.589844 105.785156 C 198.722656 105.96875 198.824219 106.179688 198.894531 106.417969 C 198.964844 106.65625 199 106.90625 198.996094 107.160156 C 198.992188 107.417969 198.949219 107.664062 198.871094 107.902344 C 198.796875 108.136719 198.6875 108.34375 198.546875 108.523438 C 198.410156 108.703125 198.25 108.839844 198.070312 108.9375 C 197.890625 109.03125 197.707031 109.078125 197.511719 109.078125 C 197.320312 109.074219 197.136719 109.023438 196.960938 108.921875 C 196.785156 108.820312 196.628906 108.675781 196.496094 108.492188 C 196.363281 108.308594 196.261719 108.097656 196.191406 107.859375 C 196.121094 107.621094 196.085938 107.375 196.089844 107.117188 C 196.09375 106.863281 196.132812 106.617188 196.210938 106.378906 C 196.289062 106.144531 196.398438 105.933594 196.535156 105.757812 C 196.675781 105.578125 196.835938 105.4375 197.011719 105.34375 C 197.191406 105.246094 197.378906 105.203125 197.570312 105.203125 Z M 197.570312 105.203125 " fill-opacity="1" fill-rule="nonzero"/><path fill="#0f1323" d="M 215.949219 105.144531 C 216.144531 105.144531 216.328125 105.199219 216.503906 105.300781 C 216.679688 105.398438 216.835938 105.542969 216.96875 105.726562 C 217.101562 105.910156 217.203125 106.121094 217.273438 106.359375 C 217.34375 106.597656 217.378906 106.84375 217.375 107.101562 C 217.371094 107.359375 217.328125 107.605469 217.25 107.839844 C 217.175781 108.078125 217.066406 108.285156 216.925781 108.464844 C 216.789062 108.644531 216.628906 108.78125 216.449219 108.875 C 216.269531 108.972656 216.085938 109.019531 215.890625 109.015625 C 215.699219 109.011719 215.515625 108.960938 215.339844 108.859375 C 215.164062 108.757812 215.007812 108.617188 214.875 108.433594 C 214.742188 108.25 214.636719 108.039062 214.570312 107.800781 C 214.5 107.5625 214.464844 107.3125 214.46875 107.058594 C 214.472656 106.800781 214.511719 106.554688 214.589844 106.316406 C 214.667969 106.082031 214.777344 105.875 214.914062 105.695312 C 215.054688 105.515625 215.214844 105.378906 215.390625 105.28125 C 215.570312 105.1875 215.757812 105.140625 215.949219 105.144531 Z M 215.949219 105.144531 " fill-opacity="1" fill-rule="nonzero"/><path fill="#d1592e" d="M 206.289062 126.460938 C 205.804688 126.460938 205.320312 126.21875 205.078125 125.492188 C 204.835938 124.765625 205.320312 124.28125 206.046875 124.039062 C 210.164062 122.828125 210.886719 121.136719 210.886719 119.683594 C 210.886719 118.230469 210.40625 116.535156 209.921875 114.601562 C 209.4375 112.664062 208.710938 110.242188 208.46875 107.824219 C 208.46875 107.097656 208.953125 106.613281 209.679688 106.613281 C 210.40625 106.613281 210.886719 107.097656 210.886719 107.824219 C 211.128906 110 211.613281 111.9375 212.339844 114.117188 C 212.824219 116.054688 213.550781 117.988281 213.550781 119.683594 C 213.550781 123.070312 211.371094 125.25 207.015625 126.460938 C 206.53125 126.21875 206.289062 126.460938 206.289062 126.460938 Z M 206.289062 126.460938 " fill-opacity="1" fill-rule="nonzero"/><path fill="#d1592e" d="M 204.109375 134.207031 C 199.027344 134.207031 196.367188 131.785156 194.671875 130.089844 C 194.1875 129.605469 194.1875 128.878906 194.671875 128.398438 C 195.15625 127.914062 195.882812 127.914062 196.367188 128.398438 C 198.300781 130.332031 200.722656 132.753906 207.257812 131.542969 C 207.984375 131.300781 208.46875 131.785156 208.710938 132.511719 C 208.953125 133.238281 208.46875 133.722656 207.742188 133.964844 C 206.53125 134.207031 205.320312 134.207031 204.109375 134.207031 Z M 204.109375 134.207031 " fill-opacity="1" fill-rule="nonzero"/><path fill="#d1592e" d="M 166.109375 123.070312 C 165.625 123.070312 165.140625 122.585938 164.898438 122.105469 C 164.65625 120.894531 163.6875 119.925781 162.71875 118.957031 C 161.511719 117.746094 160.300781 116.535156 160.300781 114.601562 C 160.300781 113.632812 160.785156 112.421875 161.753906 111.210938 C 162.238281 110.726562 162.960938 110.484375 163.445312 110.96875 C 163.929688 111.453125 164.171875 112.179688 163.6875 112.664062 C 163.203125 113.390625 162.960938 114.117188 162.960938 114.601562 C 162.960938 115.328125 163.6875 116.292969 164.65625 117.261719 C 165.867188 118.472656 167.078125 119.683594 167.5625 121.863281 C 167.5625 122.347656 167.078125 122.828125 166.109375 123.070312 C 166.351562 123.070312 166.351562 123.070312 166.109375 123.070312 Z M 166.109375 123.070312 " fill-opacity="1" fill-rule="nonzero"/></svg>